# Blender 4.0.2
# www.blender.org
mtllib Fern_2.mtl
o Fern_2
v 0.955460 0.398128 -0.343677
v 1.222315 0.237806 0.173213
v 1.373539 0.334348 -1.114819
v 1.592124 0.690321 -0.624782
v 2.356590 0.300727 -0.974103
v 0.746736 0.165049 -0.863479
v 1.804847 0.326567 -0.174634
v 1.850057 0.443602 -1.142338
v 1.982057 0.691729 -0.799987
v 2.143815 0.432773 -0.501989
v 0.203859 0.017813 -0.006566
v 1.263102 0.579359 -0.478629
v 1.060138 0.249698 -0.989149
v 1.513581 0.290505 -0.000711
v 2.204474 0.413075 -0.667026
v 2.018724 0.419922 -1.071932
v 2.199375 0.555203 -0.900237
v 0.007665 0.476047 -0.232166
v 1.078308 0.244581 -0.386383
v -0.783487 1.091466 -1.364855
v 0.095857 1.501997 -0.815533
v 0.321379 1.870644 -2.388742
v -0.933370 0.244581 -0.658143
v 1.040921 1.091467 -1.118393
v -0.416626 1.649672 -1.794454
v 0.179180 1.917462 -1.388209
v 0.825957 1.649672 -1.626592
v -0.019019 -0.103493 -0.054421
v 0.043229 1.024389 -0.460690
v -0.858428 0.668024 -1.011499
v 1.059614 0.668024 -0.752388
v 0.632439 1.744967 -1.847632
v -0.153273 1.744967 -1.953775
v 0.246514 1.993187 -1.865473
v -0.220460 0.566866 0.088480
v -0.887432 0.291767 -0.763111
v -0.808621 1.298298 1.338669
v -0.770246 1.786217 0.302557
v -2.246767 2.224357 0.890550
v -0.121151 0.291767 1.116654
v -1.503569 1.298298 -0.366105
v -1.363864 1.961730 1.234514
v -1.308339 2.280001 0.515531
v -1.837184 1.961730 0.073412
v -0.053040 -0.121922 0.023092
v -0.436335 1.218576 0.171460
v -0.464886 0.795033 1.227661
v -1.195500 0.795033 -0.564608
v -1.932474 2.074989 0.351311
v -1.633183 2.074989 1.085501
v -1.755731 2.370001 0.694849
v 0.177574 0.566866 0.138222
v -0.180768 0.291767 1.158835
v 1.547728 1.298298 -0.039493
v 0.654043 1.786217 0.486175
v 1.944667 2.224357 1.413612
v 0.990420 0.291767 -0.499182
v 0.485568 1.298298 1.464177
v 1.758997 1.961730 0.484442
v 1.123285 2.280001 0.824869
v 1.035572 1.961730 1.508575
v 0.032313 -0.121922 0.032371
v 0.363752 1.218576 0.275428
v 1.269074 0.795033 -0.269338
v 0.152400 0.795033 1.311506
v 1.321046 2.074989 1.439201
v 1.778483 2.074989 0.791621
v 1.515322 2.370001 1.105265
v 0.418608 0.337082 0.351835
v -0.237552 -0.089482 1.182044
v 2.010244 0.250384 0.465698
v 1.362343 0.897943 1.195765
v 2.515055 0.189224 2.200251
v 1.123231 -0.057592 -0.384236
v 0.776139 0.221462 1.886172
v 2.413566 0.449130 1.234630
v 1.945381 0.900504 1.710358
v 1.573031 0.429432 2.202099
v -0.024833 -0.081224 -0.045530
v 0.873170 0.692405 0.760290
v 1.566737 0.096396 0.040731
v 0.269293 0.065990 1.534108
v 1.892033 0.393597 2.178717
v 2.423522 0.406053 1.566967
v 2.274637 0.652146 1.995197
v -0.475820 0.310321 0.196046
v -0.879640 -0.082944 -0.692051
v -1.240524 0.230391 1.452817
v -1.565733 0.827399 0.613731
v -2.875416 0.174005 1.135008
v -0.169614 -0.053543 1.084164
v -1.884454 0.203727 -0.158048
v -2.041007 0.413622 1.459113
v -2.233518 0.829760 0.874638
v -2.479579 0.395461 0.361972
v 0.036980 -0.075331 0.000131
v -1.002402 0.637906 0.396401
v -0.705069 0.088424 1.268490
v -1.382047 0.060391 -0.425050
v -2.594969 0.362425 0.633347
v -2.317650 0.373908 1.327094
v -2.605906 0.600790 1.024410
v 0.077058 0.325976 -0.531380
v 1.092424 -0.086769 -0.399295
v -0.619526 0.242087 -1.909325
v 0.308598 0.868667 -1.734322
v 0.569559 0.182908 -3.190557
v -0.884244 -0.055912 -0.750487
v 1.173132 0.214102 -1.590826
v -0.181639 0.434394 -2.626348
v 0.446011 0.871145 -2.474126
v 1.039319 0.415334 -2.409422
v -0.032419 -0.078778 0.034265
v 0.190214 0.669788 -1.111769
v -0.751885 0.093087 -1.329906
v 1.132778 0.063667 -0.995061
v 0.861351 0.380660 -2.662632
v 0.089313 0.392713 -2.799798
v 0.518825 0.630833 -2.889045
v -0.775364 0.398128 -0.655614
v -0.461151 0.237806 -1.145162
v -1.652231 0.334348 -0.632111
v -1.337139 0.690321 -1.066429
v -2.021893 0.300727 -1.553815
v -1.121162 0.165049 -0.214953
v -1.053661 0.326567 -1.475726
v -1.914322 0.443601 -1.031027
v -1.683838 0.691729 -1.316519
v -1.506643 0.432773 -1.605604
v -0.246543 -0.012817 -0.246573
v -1.046056 0.579359 -0.854564
v -1.386697 0.249698 -0.423532
v -0.757406 0.290505 -1.310444
v -1.679899 0.413075 -1.575618
v -1.937683 0.419921 -1.212301
v -1.879316 0.555203 -1.454596
v -0.180097 0.398128 0.999291
v -0.761164 0.237806 0.971949
v 0.278691 0.334348 1.746930
v -0.254985 0.690321 1.691211
v -0.334697 0.300727 2.527919
v 0.374426 0.165049 1.078432
v -0.751185 0.326567 1.650360
v 0.064265 0.443601 2.173366
v -0.298220 0.691729 2.116505
v -0.637172 0.432773 2.107593
v -0.020318 0.034657 0.060776
v -0.217046 0.579359 1.333193
v 0.326559 0.249698 1.412681
v -0.756175 0.290505 1.311155
v -0.524576 0.413074 2.242644
v -0.081042 0.419922 2.284233
v -0.320059 0.555203 2.354833
vn -0.2537 0.9624 0.0971
vn -0.0200 0.8656 0.5003
vn 0.1536 0.8242 0.5451
vn -0.0861 0.9948 0.0544
vn 0.2576 0.9621 -0.0895
vn 0.4175 0.7795 0.4670
vn 0.7297 0.6185 0.2916
vn 0.6491 0.7105 -0.2717
vn -0.4469 0.8334 -0.3253
vn -0.4871 0.8424 -0.2303
vn -0.3610 0.9261 0.1094
vn -0.0642 0.8104 -0.5824
vn -0.3415 0.8310 -0.4391
vn 0.7579 0.5636 -0.3285
vn 0.2859 0.6440 -0.7095
vn -0.4064 0.9063 0.1163
vn -0.1725 0.8828 0.4368
vn -0.1074 0.5924 0.7984
vn 0.3696 0.5225 0.7684
vn 0.4541 0.6100 0.6494
vn -0.0824 0.7343 0.6738
vn -0.0377 0.9260 0.3757
vn 0.4862 0.7742 0.4053
vn 0.4911 0.8692 0.0579
vn 0.0208 0.9977 -0.0641
vn -0.5623 0.5138 0.6479
vn -0.5095 0.4304 0.7451
vn -0.1280 0.4257 0.8958
vn -0.5558 0.7863 0.2700
vn -0.5972 0.6136 0.5166
vn 0.0376 0.9741 -0.2227
vn -0.4651 0.8820 -0.0756
vn -0.1342 0.2962 0.9456
vn 0.2836 0.4390 0.8526
vn 0.7851 0.5294 -0.3214
vn 0.5059 0.4569 -0.7316
vn 0.3600 0.5411 -0.7600
vn 0.6750 0.6805 -0.2850
vn 0.3809 0.9090 -0.1695
vn 0.1208 0.7169 -0.6867
vn -0.2184 0.8286 -0.5154
vn -0.0761 0.9969 0.0172
vn 0.8777 0.4485 0.1686
vn 0.9280 0.3664 0.0680
vn 0.8616 0.3733 -0.3439
vn 0.5642 0.7309 0.3839
vn 0.7926 0.5444 0.2746
vn -0.2492 0.9641 0.0921
vn 0.1902 0.8444 0.5008
vn 0.8983 0.2525 -0.3596
vn 0.6210 0.3741 -0.6887
vn -0.6937 0.5294 -0.4885
vn -0.8889 0.4569 -0.0322
vn -0.8342 0.5411 0.1060
vn -0.6037 0.6805 -0.4153
vn -0.3479 0.9090 -0.2296
vn -0.6436 0.7169 0.2680
vn -0.3166 0.8286 0.4616
vn 0.0555 0.9969 0.0549
vn -0.3306 0.4485 -0.8304
vn -0.4425 0.3664 -0.8185
vn -0.7538 0.3733 -0.5408
vn 0.0196 0.7309 -0.6822
vn -0.1955 0.5444 -0.8157
vn 0.2118 0.9641 0.1604
vn 0.3195 0.8444 -0.4300
vn -0.7868 0.2525 -0.5632
vn -0.9148 0.3741 -0.1524
vn -0.2406 0.9522 -0.1880
vn -0.5333 0.8224 0.1980
vn -0.4737 0.8050 0.3572
vn -0.1058 0.9926 -0.0597
vn 0.1853 0.9625 0.1981
vn -0.2589 0.7776 0.5730
vn 0.0355 0.6185 0.7850
vn 0.5153 0.7105 0.4792
vn 0.0988 0.8339 -0.5430
vn -0.0386 0.8248 -0.5642
vn -0.3566 0.8845 -0.3008
vn 0.5040 0.8104 -0.2988
vn 0.2574 0.8313 -0.4927
vn 0.6120 0.5636 0.5548
vn 0.7643 0.6440 -0.0323
vn -0.4383 0.8182 -0.3722
vn -0.5712 0.8190 0.0548
vn 0.2773 0.9522 -0.1279
vn 0.0679 0.8224 -0.5648
vn -0.1009 0.8050 -0.5846
vn 0.1015 0.9926 -0.0668
vn -0.2609 0.9625 0.0742
vn -0.3910 0.7776 -0.4923
vn -0.7142 0.6185 -0.3276
vn -0.6618 0.7105 0.2390
vn 0.4377 0.8339 0.3363
vn 0.5193 0.8248 0.2238
vn 0.4306 0.8845 -0.1795
vn 0.0351 0.8104 0.5849
vn 0.3204 0.8313 0.4543
vn -0.7733 0.5636 0.2904
vn -0.3209 0.6440 0.6944
vn 0.5315 0.8182 -0.2194
vn 0.2126 0.8190 -0.5330
vn -0.0377 0.9522 0.3031
vn 0.4438 0.8224 0.3558
vn 0.5498 0.8050 0.2230
vn 0.0032 0.9926 0.1214
vn 0.0747 0.9625 -0.2607
vn 0.6246 0.7776 -0.0722
vn 0.6553 0.6185 -0.4337
vn 0.1464 0.7105 -0.6883
vn -0.5166 0.8339 0.1942
vn -0.4642 0.8248 0.3229
vn -0.0749 0.8845 0.4604
vn -0.5153 0.8104 -0.2789
vn -0.5549 0.8313 0.0323
vn 0.1616 0.5636 -0.8101
vn -0.4204 0.6440 -0.6391
vn -0.0942 0.8182 0.5672
vn 0.3404 0.8190 0.4619
vn 0.2110 0.9624 0.1711
vn 0.4433 0.8656 -0.2328
vn 0.3953 0.8242 -0.4056
vn 0.0901 0.9948 0.0473
vn -0.2063 0.9621 -0.1784
vn 0.1956 0.7795 -0.5951
vn -0.1123 0.6185 -0.7777
vn -0.5598 0.7105 -0.4263
vn -0.0582 0.8334 0.5497
vn 0.0778 0.8273 0.5563
vn 0.3187 0.9044 0.2839
vn -0.4723 0.8104 0.3468
vn -0.2095 0.8310 0.5153
vn -0.6635 0.5636 -0.4921
vn -0.7575 0.6440 0.1071
vn 0.3858 0.8510 0.3562
vn 0.4992 0.8654 -0.0438
vn 0.0427 0.9624 -0.2683
vn -0.4233 0.8656 -0.2675
vn -0.5489 0.8242 -0.1395
vn -0.0041 0.9948 -0.1017
vn -0.0513 0.9621 0.2678
vn -0.6132 0.7795 0.1281
vn -0.6174 0.6185 0.4861
vn -0.0893 0.7105 0.6980
vn 0.5051 0.8334 -0.2244
vn 0.4418 0.8548 -0.2723
vn 0.0782 0.9382 -0.3372
vn 0.5365 0.8104 0.2356
vn 0.5510 0.8310 -0.0762
vn -0.0945 0.5636 0.8206
vn 0.4715 0.6440 0.6024
vn 0.1072 0.9331 -0.3431
vn -0.2948 0.8894 -0.3493
vt 0.426463 0.129968
vt 0.574647 0.130690
vt 0.572715 0.211987
vt 0.427137 0.210544
vt 0.427993 0.312900
vt 0.516267 0.316764
vt 0.484182 0.359772
vt 0.428403 0.362012
vt 0.286265 0.129968
vt 0.282357 0.049392
vt 0.425789 0.049392
vt 0.334531 0.316764
vt 0.290173 0.210544
vt 0.429003 0.433737
vt 0.369267 0.359772
vt 0.425405 0.003490
vt 0.576579 0.049392
s 1
usemtl Leaves
f 12/1/1 14/2/2 7/3/3 4/4/4
f 9/5/5 10/6/6 15/7/7 17/8/8
f 12/1/1 13/9/9 6/10/10 1/11/11
f 9/5/5 8/12/12 3/13/13 4/4/4
f 4/4/4 7/3/3 10/6/6 9/5/5
f 5/14/14 16/15/15 17/8/8
f 11/16/16 2/17/17 1/11/11
f 6/10/10 11/16/16 1/11/11
f 4/4/4 3/13/13 13/9/9 12/1/1
f 1/11/11 2/17/17 14/2/2 12/1/1
f 17/8/8 15/7/7 5/14/14
f 17/8/8 16/15/15 8/12/12 9/5/5
f 29/1/18 31/2/19 24/3/20 21/4/21
f 26/5/22 27/6/23 32/7/24 34/8/25
f 29/1/18 30/9/26 23/10/27 18/11/28
f 26/5/22 25/12/29 20/13/30 21/4/21
f 21/4/21 24/3/20 27/6/23 26/5/22
f 22/14/31 33/15/32 34/8/25
f 28/16/33 19/17/34 18/11/28
f 23/10/27 28/16/33 18/11/28
f 21/4/21 20/13/30 30/9/26 29/1/18
f 18/11/28 19/17/34 31/2/19 29/1/18
f 34/8/25 32/7/24 22/14/31
f 34/8/25 33/15/32 25/12/29 26/5/22
f 46/1/35 48/2/36 41/3/37 38/4/38
f 43/5/39 44/6/40 49/7/41 51/8/42
f 46/1/35 47/9/43 40/10/44 35/11/45
f 43/5/39 42/12/46 37/13/47 38/4/38
f 38/4/38 41/3/37 44/6/40 43/5/39
f 39/14/48 50/15/49 51/8/42
f 45/16/50 36/17/51 35/11/45
f 40/10/44 45/16/50 35/11/45
f 38/4/38 37/13/47 47/9/43 46/1/35
f 35/11/45 36/17/51 48/2/36 46/1/35
f 51/8/42 49/7/41 39/14/48
f 51/8/42 50/15/49 42/12/46 43/5/39
f 63/1/52 65/2/53 58/3/54 55/4/55
f 60/5/56 61/6/57 66/7/58 68/8/59
f 63/1/52 64/9/60 57/10/61 52/11/62
f 60/5/56 59/12/63 54/13/64 55/4/55
f 55/4/55 58/3/54 61/6/57 60/5/56
f 56/14/65 67/15/66 68/8/59
f 62/16/67 53/17/68 52/11/62
f 57/10/61 62/16/67 52/11/62
f 55/4/55 54/13/64 64/9/60 63/1/52
f 52/11/62 53/17/68 65/2/53 63/1/52
f 68/8/59 66/7/58 56/14/65
f 68/8/59 67/15/66 59/12/63 60/5/56
f 80/1/69 82/2/70 75/3/71 72/4/72
f 77/5/73 78/6/74 83/7/75 85/8/76
f 80/1/69 81/9/77 74/10/78 69/11/79
f 77/5/73 76/12/80 71/13/81 72/4/72
f 72/4/72 75/3/71 78/6/74 77/5/73
f 73/14/82 84/15/83 85/8/76
f 79/16/84 70/17/85 69/11/79
f 74/10/78 79/16/84 69/11/79
f 72/4/72 71/13/81 81/9/77 80/1/69
f 69/11/79 70/17/85 82/2/70 80/1/69
f 85/8/76 83/7/75 73/14/82
f 85/8/76 84/15/83 76/12/80 77/5/73
f 97/1/86 99/2/87 92/3/88 89/4/89
f 94/5/90 95/6/91 100/7/92 102/8/93
f 97/1/86 98/9/94 91/10/95 86/11/96
f 94/5/90 93/12/97 88/13/98 89/4/89
f 89/4/89 92/3/88 95/6/91 94/5/90
f 90/14/99 101/15/100 102/8/93
f 96/16/101 87/17/102 86/11/96
f 91/10/95 96/16/101 86/11/96
f 89/4/89 88/13/98 98/9/94 97/1/86
f 86/11/96 87/17/102 99/2/87 97/1/86
f 102/8/93 100/7/92 90/14/99
f 102/8/93 101/15/100 93/12/97 94/5/90
f 114/1/103 116/2/104 109/3/105 106/4/106
f 111/5/107 112/6/108 117/7/109 119/8/110
f 114/1/103 115/9/111 108/10/112 103/11/113
f 111/5/107 110/12/114 105/13/115 106/4/106
f 106/4/106 109/3/105 112/6/108 111/5/107
f 107/14/116 118/15/117 119/8/110
f 113/16/118 104/17/119 103/11/113
f 108/10/112 113/16/118 103/11/113
f 106/4/106 105/13/115 115/9/111 114/1/103
f 103/11/113 104/17/119 116/2/104 114/1/103
f 119/8/110 117/7/109 107/14/116
f 119/8/110 118/15/117 110/12/114 111/5/107
f 131/1/120 133/2/121 126/3/122 123/4/123
f 128/5/124 129/6/125 134/7/126 136/8/127
f 131/1/120 132/9/128 125/10/129 120/11/130
f 128/5/124 127/12/131 122/13/132 123/4/123
f 123/4/123 126/3/122 129/6/125 128/5/124
f 124/14/133 135/15/134 136/8/127
f 130/16/135 121/17/136 120/11/130
f 125/10/129 130/16/135 120/11/130
f 123/4/123 122/13/132 132/9/128 131/1/120
f 120/11/130 121/17/136 133/2/121 131/1/120
f 136/8/127 134/7/126 124/14/133
f 136/8/127 135/15/134 127/12/131 128/5/124
f 148/1/137 150/2/138 143/3/139 140/4/140
f 145/5/141 146/6/142 151/7/143 153/8/144
f 148/1/137 149/9/145 142/10/146 137/11/147
f 145/5/141 144/12/148 139/13/149 140/4/140
f 140/4/140 143/3/139 146/6/142 145/5/141
f 141/14/150 152/15/151 153/8/144
f 147/16/152 138/17/153 137/11/147
f 142/10/146 147/16/152 137/11/147
f 140/4/140 139/13/149 149/9/145 148/1/137
f 137/11/147 138/17/153 150/2/138 148/1/137
f 153/8/144 151/7/143 141/14/150
f 153/8/144 152/15/151 144/12/148 145/5/141
