# Blender 4.0.2
# www.blender.org
mtllib Flower_1_Single.mtl
o Flower_1_Single
v -0.188509 1.260289 0.138374
v -0.220355 1.406745 0.427349
v -0.439009 1.290727 0.356144
v -0.312145 1.363266 0.328995
v -0.021401 1.535498 0.188280
v -0.159375 1.442217 0.406386
v -0.140156 1.463827 0.263091
v -0.040733 1.529789 0.122385
v -0.187091 1.467426 -0.125718
v -0.134921 1.482834 0.052110
v -0.228253 1.443483 -0.111567
v -0.429164 1.326616 -0.042500
v -0.315835 1.387059 -0.009657
v -0.467493 1.282314 0.259052
v -0.486660 1.293171 -0.022734
v -0.425367 1.314330 0.146146
v -0.176668 1.202909 0.125243
v -0.174837 1.202891 0.128025
v -0.176597 1.203525 0.121974
v -0.174650 1.204504 0.119467
v -0.171572 1.205472 0.118679
v -0.168538 1.206058 0.119911
v -0.166707 1.206039 0.122693
v -0.166778 1.205423 0.125962
v -0.168725 1.204444 0.128470
v -0.171803 1.203477 0.129257
v -0.188446 1.256042 0.136997
v -0.042943 -0.002540 0.034356
v -0.120352 0.962049 0.079628
v -0.045142 0.228217 0.038201
v -0.046344 0.492549 0.039015
v -0.079532 0.747597 0.053210
v -0.122954 0.962046 0.075670
v -0.048314 -0.002383 0.026917
v -0.082673 0.747712 0.048255
v -0.050458 0.492637 0.033150
v -0.050092 0.228340 0.031455
v -0.122851 0.962929 0.071019
v -0.048288 -0.002012 0.017747
v -0.082498 0.748771 0.042433
v -0.050434 0.493447 0.026084
v -0.050162 0.228775 0.023178
v -0.120082 0.964358 0.067450
v -0.042874 -0.001570 0.010350
v -0.079068 0.750372 0.037964
v -0.046280 0.494671 0.020516
v -0.045324 0.229356 0.016532
v -0.115702 0.965768 0.066324
v -0.034141 -0.001215 0.007551
v -0.073696 0.751899 0.036559
v -0.039581 0.495846 0.018574
v -0.037427 0.229867 0.014057
v -0.111381 0.966613 0.068068
v -0.025426 -0.001075 0.010420
v -0.068436 0.752768 0.038759
v -0.032902 0.496524 0.021004
v -0.029489 0.230120 0.016698
v -0.108773 0.966583 0.072020
v -0.020057 -0.001212 0.017860
v -0.065300 0.752650 0.043721
v -0.028791 0.496446 0.026873
v -0.024542 0.230013 0.023446
v -0.108877 0.965707 0.076672
v -0.020083 -0.001582 0.027029
v -0.065477 0.751594 0.049538
v -0.028818 0.495636 0.033937
v -0.024474 0.229580 0.031723
v -0.111653 0.964314 0.080247
v -0.025495 -0.002044 0.034425
v -0.068904 0.749999 0.053999
v -0.032970 0.494403 0.039500
v -0.029310 0.228984 0.038366
v -0.116037 0.962921 0.081377
v -0.034227 -0.002413 0.037223
v -0.074272 0.748472 0.055402
v -0.039665 0.493223 0.041440
v -0.037204 0.228462 0.040841
v -0.155920 0.587230 0.091742
v -0.373253 0.815696 0.204682
v -0.040200 0.505351 0.031219
v -0.039734 0.552370 -0.028940
v -0.454674 1.054826 0.244173
v -0.155712 0.617122 -0.025377
v -0.387379 0.836153 0.069560
v 0.006799 0.552370 0.055329
v -0.276780 0.856281 0.297139
v -0.096453 0.656759 0.212683
vn -0.3071 0.6856 0.6600
vn -0.0499 0.9564 0.2876
vn -0.4861 0.8700 0.0828
vn -0.8105 0.4655 0.3554
vn -0.8115 0.3706 0.4519
vn -0.1899 0.9185 -0.3469
vn -0.2264 0.7880 -0.5725
vn 0.1010 0.9935 0.0521
vn -0.1744 0.6688 0.7227
vn -0.3577 0.8165 -0.4532
vn 0.2242 0.9715 0.0770
vn -0.5981 0.6322 0.4926
vn -0.8410 0.5302 -0.1080
vn -0.1334 0.7891 0.5996
vn -0.7366 0.5941 -0.3232
vn -0.8492 0.4076 -0.3359
vn -0.9218 -0.1268 -0.3662
vn -0.9426 -0.2330 0.2393
vn -0.9346 -0.2596 0.2431
vn -0.9246 -0.1173 -0.3624
vn -0.5522 0.0313 -0.8332
vn -0.5629 0.0884 -0.8218
vn 0.0288 0.1814 -0.9830
vn 0.0063 0.2774 -0.9607
vn 0.5966 0.2650 -0.7575
vn 0.5648 0.3795 -0.7328
vn 0.9357 0.2510 -0.2480
vn 0.9057 0.3582 -0.2267
vn 0.9235 0.1460 0.3548
vn 0.9023 0.2211 0.3702
vn 0.5592 -0.0120 0.8289
vn 0.5514 0.0174 0.8341
vn -0.0268 -0.1633 0.9862
vn -0.0177 -0.1755 0.9843
vn -0.6035 -0.2478 0.7579
vn -0.5869 -0.2820 0.7590
vn -0.3002 0.9250 0.2332
vn -0.9497 -0.0135 0.3127
vn -0.5895 -0.0192 0.8075
vn -0.5932 -0.0123 0.8050
vn -0.9507 -0.0085 0.3100
vn -0.6023 -0.0629 0.7958
vn -0.9548 -0.0689 0.2893
vn -0.6151 -0.1662 0.7708
vn -0.9517 -0.1723 0.2540
vn -0.9524 -0.0005 -0.3048
vn -0.9513 0.0011 -0.3082
vn -0.9416 -0.0467 -0.3336
vn -0.9276 -0.1105 -0.3569
vn -0.5881 0.0155 -0.8087
vn -0.5823 0.0130 -0.8129
vn -0.5576 -0.0028 -0.8301
vn -0.5489 -0.0024 -0.8359
vn 0.0025 0.0281 -0.9996
vn 0.0114 0.0227 -0.9997
vn 0.0409 0.0466 -0.9981
vn 0.0435 0.1111 -0.9929
vn 0.5891 0.0322 -0.8074
vn 0.5937 0.0263 -0.8042
vn 0.6123 0.0812 -0.7864
vn 0.6135 0.1838 -0.7680
vn 0.9512 0.0258 -0.3074
vn 0.9513 0.0225 -0.3073
vn 0.9532 0.0874 -0.2894
vn 0.9469 0.1892 -0.2601
vn 0.9495 0.0117 0.3137
vn 0.9500 0.0124 0.3119
vn 0.9457 0.0629 0.3189
vn 0.9301 0.1274 0.3445
vn 0.5803 -0.0042 0.8144
vn 0.5795 0.0002 0.8150
vn 0.5773 0.0174 0.8163
vn 0.5594 0.0199 0.8286
vn -0.0087 -0.0158 0.9998
vn -0.0129 -0.0091 0.9999
vn -0.0180 -0.0307 0.9994
vn -0.0356 -0.0930 0.9950
vn 0.7413 0.5575 -0.3738
vn 0.8301 0.5562 0.0400
vn 0.8222 0.3536 -0.4459
vn 0.4864 0.5281 -0.6961
vn 0.6528 0.7261 0.2159
vn 0.4821 0.8377 -0.2568
vn 0.3526 0.9165 -0.1891
vn 0.5683 0.7541 0.3293
vn 0.2818 0.7100 -0.6454
vn 0.0228 0.7711 -0.6363
vt 0.141567 0.987485
vt 0.081058 0.988636
vt 0.238749 0.780658
vt 0.461958 0.734109
vt 0.393242 0.820480
vt 0.014125 0.662375
vt 0.142760 0.646286
vt 0.015808 0.750913
vt 0.239566 0.926122
vt 0.200879 0.537532
vt 0.089297 0.831075
vt 0.396325 0.982641
vt 0.460815 0.674019
vt 0.353006 0.983464
vt 0.265056 0.536311
vt 0.325770 0.648424
vt 0.300857 0.644477
vt 0.300053 0.644499
vt 0.299126 0.591690
vt 0.299691 0.591676
vt 0.301852 0.644445
vt 0.300389 0.591658
vt 0.302657 0.644417
vt 0.300952 0.591643
vt 0.302964 0.644408
vt 0.301167 0.591638
vt 0.302657 0.644417
vt 0.300950 0.591643
vt 0.301852 0.644437
vt 0.300385 0.591658
vt 0.300858 0.644462
vt 0.299687 0.591676
vt 0.300053 0.644486
vt 0.299124 0.591690
vt 0.299746 0.644501
vt 0.298910 0.591696
vt 0.298800 0.580018
vt 0.294654 0.846543
vt 0.294082 0.846559
vt 0.291565 0.800298
vt 0.292089 0.800284
vt 0.291285 0.745666
vt 0.291741 0.745656
vt 0.296162 0.690906
vt 0.296543 0.690900
vt 0.296152 0.846505
vt 0.293461 0.800249
vt 0.292939 0.745624
vt 0.297541 0.690873
vt 0.298002 0.846458
vt 0.295157 0.800205
vt 0.294420 0.745584
vt 0.298776 0.690837
vt 0.299500 0.846419
vt 0.296529 0.800169
vt 0.295619 0.745551
vt 0.299777 0.690807
vt 0.300072 0.846401
vt 0.297053 0.800154
vt 0.296078 0.745538
vt 0.300158 0.690796
vt 0.299500 0.846412
vt 0.296529 0.800165
vt 0.295621 0.745549
vt 0.299777 0.690806
vt 0.298002 0.846451
vt 0.295157 0.800200
vt 0.294424 0.745580
vt 0.298780 0.690832
vt 0.296152 0.846502
vt 0.293461 0.800246
vt 0.292943 0.745619
vt 0.297546 0.690863
vt 0.294654 0.846544
vt 0.292089 0.800284
vt 0.291744 0.745652
vt 0.296546 0.690891
vt 0.124404 0.832505
vt 0.194271 0.825851
vt 0.127078 0.971852
vt 0.053165 0.839289
vt 0.178145 0.634350
vt 0.120948 0.652351
vt 0.119297 0.566293
vt 0.148580 0.566293
vt 0.045774 0.676010
vt 0.094824 0.566293
s 1
usemtl Leaves
f 38/17/17 33/18/18 17/19/19 19/20/20
f 43/21/21 38/17/17 19/20/20 20/22/22
f 48/23/23 43/21/21 20/22/22 21/24/24
f 53/25/25 48/23/23 21/24/24 22/26/26
f 58/27/27 53/25/25 22/26/26 23/28/28
f 63/29/29 58/27/27 23/28/28 24/30/30
f 68/31/31 63/29/29 24/30/30 25/32/32
f 73/33/33 68/31/31 25/32/32 26/34/34
f 29/35/35 73/33/33 26/34/34 18/36/36
f 22/26/26 21/24/24 27/37/37
f 19/20/20 17/19/19 27/37/37
f 26/34/34 25/32/32 27/37/37
f 23/28/28 22/26/26 27/37/37
f 20/22/22 19/20/20 27/37/37
f 18/36/36 26/34/34 27/37/37
f 24/30/30 23/28/28 27/37/37
f 21/24/24 20/22/22 27/37/37
f 17/19/19 18/36/36 27/37/37
f 25/32/32 24/30/30 27/37/37
f 34/38/38 28/39/39 30/40/40 37/41/41
f 37/41/41 30/40/40 31/42/42 36/43/43
f 36/43/43 31/42/42 32/44/44 35/45/45
f 35/45/45 32/44/44 29/35/35 33/18/18
f 39/46/46 34/38/38 37/41/41 42/47/47
f 42/47/47 37/41/41 36/43/43 41/48/48
f 41/48/48 36/43/43 35/45/45 40/49/49
f 40/49/49 35/45/45 33/18/18 38/17/17
f 44/50/50 39/46/46 42/47/47 47/51/51
f 47/51/51 42/47/47 41/48/48 46/52/52
f 46/52/52 41/48/48 40/49/49 45/53/53
f 45/53/53 40/49/49 38/17/17 43/21/21
f 49/54/54 44/50/50 47/51/51 52/55/55
f 52/55/55 47/51/51 46/52/52 51/56/56
f 51/56/56 46/52/52 45/53/53 50/57/57
f 50/57/57 45/53/53 43/21/21 48/23/23
f 54/58/58 49/54/54 52/55/55 57/59/59
f 57/59/59 52/55/55 51/56/56 56/60/60
f 56/60/60 51/56/56 50/57/57 55/61/61
f 55/61/61 50/57/57 48/23/23 53/25/25
f 59/62/62 54/58/58 57/59/59 62/63/63
f 62/63/63 57/59/59 56/60/60 61/64/64
f 61/64/64 56/60/60 55/61/61 60/65/65
f 60/65/65 55/61/61 53/25/25 58/27/27
f 64/66/66 59/62/62 62/63/63 67/67/67
f 67/67/67 62/63/63 61/64/64 66/68/68
f 66/68/68 61/64/64 60/65/65 65/69/69
f 65/69/69 60/65/65 58/27/27 63/29/29
f 69/70/70 64/66/66 67/67/67 72/71/71
f 72/71/71 67/67/67 66/68/68 71/72/72
f 71/72/72 66/68/68 65/69/69 70/73/73
f 70/73/73 65/69/69 63/29/29 68/31/31
f 74/74/74 69/70/70 72/71/71 77/75/75
f 77/75/75 72/71/71 71/72/72 76/76/76
f 76/76/76 71/72/72 70/73/73 75/77/77
f 75/77/77 70/73/73 68/31/31 73/33/33
f 28/39/39 74/74/74 77/75/75 30/40/40
f 30/40/40 77/75/75 76/76/76 31/42/42
f 31/42/42 76/76/76 75/77/77 32/44/44
f 32/44/44 75/77/77 73/33/33 29/35/35
f 33/18/18 29/35/35 18/36/36 17/19/19
f 79/78/78 84/79/79 82/80/80
f 82/80/80 86/81/81 79/78/78
f 83/82/82 78/83/83 80/84/84 81/85/85
f 84/79/79 79/78/78 78/83/83 83/82/82
f 80/84/84 78/83/83 87/86/86 85/87/87
f 78/83/83 79/78/78 86/81/81 87/86/86
usemtl Flowers
f 12/1/1 15/2/2 1/3/3
f 8/4/4 10/5/5 1/3/3
f 3/6/6 4/7/7 1/3/3
f 14/8/8 3/6/6 1/3/3
f 13/9/9 12/1/1 1/3/3
f 4/7/7 2/10/10 1/3/3
f 15/2/2 16/11/11 1/3/3
f 10/5/5 9/12/12 1/3/3
f 5/13/13 8/4/4 1/3/3
f 16/11/11 14/8/8 1/3/3
f 9/12/12 11/14/14 1/3/3
f 6/15/15 7/16/16 1/3/3
f 11/14/14 13/9/9 1/3/3
f 7/16/16 5/13/13 1/3/3
f 2/10/10 6/15/15 1/3/3
