# Blender 4.0.2
# www.blender.org
mtllib Flower_6_2.mtl
o Flower_6_2
v 0.315217 0.053690 -0.023085
v 0.183191 0.132896 0.073543
v 0.341250 0.126706 0.150917
v 0.498473 0.098365 -0.081810
v 0.485296 0.095128 0.049519
v 0.456848 0.105445 -0.156382
v 0.316265 0.114037 -0.224239
v 0.140731 0.126205 -0.087790
v 0.153187 0.131937 0.035559
v -0.213882 0.034546 -0.147827
v -0.135259 0.114757 0.037129
v -0.051040 0.129348 -0.136210
v -0.296365 0.116239 -0.327588
v -0.152091 0.110303 -0.311309
v -0.379479 0.119213 -0.280732
v -0.454445 0.110089 -0.125037
v -0.307851 0.100441 0.075922
v -0.175835 0.109328 0.068382
v -0.213670 0.036823 0.203426
v -0.042081 0.101400 0.209565
v -0.137989 0.113806 0.061958
v -0.394896 0.098340 0.172794
v -0.316657 0.096495 0.066759
v -0.396800 0.099236 0.259297
v -0.310638 0.091208 0.390605
v -0.089411 0.087106 0.366619
v -0.036079 0.096502 0.256841
v 0.051113 0.023828 -0.230047
v -0.005632 0.095430 -0.411405
v -0.116862 0.107556 -0.282123
v 0.063228 0.114246 -0.069700
v -0.057220 0.098417 -0.111292
v 0.143656 0.121900 -0.093515
v 0.241767 0.114943 -0.210198
v 0.156237 0.091898 -0.408907
v 0.037339 0.092135 -0.429419
v 0.087727 0.030753 0.264853
v 0.107626 0.074448 0.430024
v 0.242866 0.067477 0.316937
v 0.100565 0.056272 0.076811
v 0.214907 0.050981 0.142097
v 0.014821 0.062684 0.084891
v -0.105151 0.070620 0.186077
v -0.054646 0.075361 0.402595
v 0.061214 0.075184 0.441858
v 0.294779 0.074627 -0.304269
v 0.192795 0.124055 -0.309072
v 0.239242 0.120192 -0.209560
v 0.406793 0.102506 -0.260985
v 0.348934 0.100486 -0.202364
v 0.415797 0.106924 -0.313513
v 0.374108 0.112286 -0.401554
v 0.235389 0.119879 -0.404065
v 0.193106 0.123456 -0.339277
v 0.341709 0.020377 0.244117
v 0.261465 0.065706 0.173681
v 0.234541 0.062164 0.285328
v 0.405057 0.045944 0.352554
v 0.319525 0.044091 0.362746
v 0.446675 0.049996 0.315482
v 0.470009 0.054913 0.216317
v 0.358238 0.061877 0.123798
v 0.281418 0.065157 0.149191
v -0.023814 0.020377 -0.003643
v -0.059767 0.065706 -0.104180
v -0.137512 0.062164 -0.019649
v -0.021083 0.045944 0.121913
v -0.100805 0.044091 0.089294
v 0.033299 0.049996 0.109710
v 0.101846 0.054913 0.034347
v 0.049053 0.061877 -0.100803
v -0.030433 0.065157 -0.115903
v -0.254991 0.138402 0.017377
v -0.344584 0.141757 -0.050713
v -0.284094 0.140779 -0.034764
v -0.104391 0.139452 -0.024158
v -0.206640 0.138021 0.020775
v -0.172368 0.139825 -0.025158
v -0.100177 0.141990 -0.083840
v -0.125046 0.147357 -0.206176
v -0.130265 0.143858 -0.123974
v -0.175728 0.147756 -0.209737
v -0.243728 0.148291 -0.214516
v -0.212126 0.147161 -0.191728
v -0.339930 0.144561 -0.116629
v -0.299810 0.148733 -0.218457
v -0.305667 0.145915 -0.152093
v -0.220308 0.073974 -0.110572
v 0.249607 0.173553 -0.000435
v 0.251581 0.168738 -0.080974
v 0.267451 0.168292 -0.039026
v 0.335667 0.162438 0.070366
v 0.267649 0.172045 0.029223
v 0.308136 0.165023 0.030233
v 0.371605 0.154920 0.048121
v 0.431419 0.140845 -0.017055
v 0.382162 0.151176 0.013925
v 0.412507 0.142426 -0.048143
v 0.387132 0.144547 -0.089855
v 0.387140 0.146094 -0.061955
v 0.291274 0.160435 -0.105542
v 0.366205 0.146296 -0.124255
v 0.325759 0.154702 -0.100204
v 0.327097 0.107636 -0.028978
v -0.019968 0.098498 0.314502
v -0.025540 0.098168 0.225978
v -0.003931 0.099803 0.270252
v 0.082124 0.106390 0.382805
v 0.002862 0.100245 0.345066
v 0.047781 0.103757 0.341783
v 0.119768 0.109364 0.354516
v 0.179707 0.114137 0.276565
v 0.128161 0.110065 0.315876
v 0.155776 0.112306 0.244527
v 0.123667 0.109850 0.201542
v 0.126363 0.110024 0.232133
v 0.016036 0.101452 0.194734
v 0.097186 0.107824 0.166091
v 0.054726 0.104471 0.196849
v 0.076589 0.051024 0.270816
vn 0.0829 0.9144 -0.3961
vn -0.1609 0.9709 -0.1772
vn 0.0970 0.9940 -0.0497
vn -0.1291 0.9630 0.2367
vn 0.0864 0.9541 0.2867
vn 0.3728 0.9096 -0.1836
vn 0.2917 0.8957 -0.3356
vn 0.3544 0.9310 0.0877
vn -0.2041 0.9734 0.1038
vn -0.5032 0.8642 0.0016
vn -0.2273 0.9135 0.3374
vn -0.1070 0.9930 0.0491
vn 0.2657 0.9283 0.2602
vn 0.3016 0.9531 0.0245
vn -0.1898 0.9377 -0.2909
vn -0.3811 0.8963 -0.2267
vn 0.0944 0.9650 -0.2446
vn 0.1227 0.9235 0.3634
vn -0.2141 0.9015 0.3761
vn 0.1297 0.9408 0.3131
vn -0.0272 0.9956 0.0896
vn 0.3037 0.9505 -0.0663
vn 0.1442 0.9678 -0.2065
vn -0.3267 0.9446 0.0310
vn -0.3513 0.9143 0.2016
vn -0.1653 0.9709 -0.1733
vn 0.3075 0.9478 0.0842
vn 0.4256 0.9016 0.0767
vn 0.2651 0.9068 -0.3277
vn 0.0035 0.9967 -0.0815
vn -0.2980 0.8595 -0.4154
vn -0.4146 0.8987 -0.1427
vn 0.0702 0.9452 0.3190
vn 0.2700 0.9215 0.2793
vn -0.2337 0.9464 0.2229
vn -0.0973 0.8701 -0.4833
vn -0.1810 0.9725 -0.1464
vn -0.1091 0.9927 0.0506
vn 0.0085 0.9980 -0.0619
vn 0.1224 0.9846 0.1251
vn 0.1934 0.9809 0.0228
vn 0.0212 0.9704 -0.2404
vn -0.0855 0.9657 -0.2452
vn 0.1541 0.9756 -0.1567
vn 0.0356 0.9900 0.1368
vn 0.3132 0.9144 -0.2563
vn -0.0140 0.9709 -0.2390
vn 0.1067 0.9940 0.0222
vn -0.2491 0.9630 0.1032
vn -0.1128 0.9541 0.2774
vn 0.4054 0.9096 0.0912
vn 0.4378 0.8957 -0.0780
vn 0.2207 0.9310 0.2908
vn -0.2240 0.9734 -0.0473
vn 0.3615 0.9323 -0.0052
vn 0.1218 0.9774 -0.1726
vn 0.0631 0.9952 0.0754
vn -0.2291 0.9712 -0.0661
vn -0.2315 0.9642 0.1296
vn 0.2326 0.9283 0.2902
vn 0.3508 0.9169 0.1905
vn -0.0081 0.9457 0.3251
vn -0.1284 0.9794 -0.1559
vn 0.3186 0.9323 0.1710
vn 0.1903 0.9774 -0.0917
vn 0.0186 0.9952 0.0966
vn -0.1681 0.9712 -0.1690
vn -0.2653 0.9642 0.0009
vn 0.0624 0.9283 0.3666
vn 0.2142 0.9169 0.3368
vn -0.1649 0.9457 0.2802
vn -0.0365 0.9794 -0.1986
vn 0.4870 0.8445 0.2228
vn 0.3880 0.8973 -0.2105
vn -0.0009 0.9981 0.0613
vn -0.3311 0.8785 0.3444
vn 0.0768 0.7831 0.6172
vn 0.3540 0.8291 -0.4327
vn -0.0463 0.7442 0.6664
vn 0.2400 0.8916 -0.3839
vn -0.1578 0.7861 0.5976
vn -0.3115 0.9105 -0.2720
vn -0.5120 0.8461 0.1483
vn 0.2922 0.8733 0.3899
vn -0.1706 0.8925 -0.4175
vn -0.2450 0.8295 -0.5020
vn 0.5398 0.7969 0.2711
vn -0.5767 0.7859 0.2233
vn 0.2768 0.8467 0.4544
vn 0.5729 0.8107 0.1206
vn 0.1539 0.9869 -0.0486
vn -0.2850 0.9475 -0.1451
vn -0.2844 0.8919 0.3516
vn 0.7151 0.6984 -0.0289
vn -0.4023 0.8707 0.2829
vn 0.6234 0.7756 -0.0990
vn -0.4039 0.9026 0.1490
vn 0.2201 0.8460 -0.4857
vn -0.2411 0.8831 -0.4024
vn 0.0380 0.9204 0.3891
vn 0.4128 0.7902 -0.4529
vn 0.4238 0.7144 -0.5567
vn 0.2595 0.8080 0.5290
vn -0.3500 0.8437 -0.4070
vn 0.1080 0.8661 0.4881
vn 0.3686 0.9207 0.1284
vn -0.0955 0.9954 0.0089
vn -0.5192 0.8531 -0.0520
vn -0.4549 0.7756 0.4376
vn 0.5179 0.8545 -0.0405
vn -0.5706 0.7291 0.3779
vn 0.4036 0.9098 -0.0967
vn -0.5933 0.7661 0.2473
vn -0.0416 0.8965 -0.4412
vn -0.4873 0.8141 -0.3160
vn -0.1469 0.8813 0.4491
vn 0.1612 0.8887 -0.4291
vn 0.1796 0.8231 -0.5387
vn 0.1081 0.8207 0.5611
vn -0.5832 0.7491 -0.3141
vt 0.644434 0.300393
vt 0.725234 0.300107
vt 0.683323 0.360334
vt 0.755317 0.366553
vt 0.724492 0.419630
vt 0.611939 0.379624
vt 0.611939 0.360909
vt 0.637909 0.420096
vt 0.755317 0.335360
vt 0.005322 0.243136
vt 0.005322 0.123537
vt 0.222861 0.242029
vt 0.381532 0.432070
vt 0.289656 0.432070
vt 0.116467 0.102417
vt 0.226293 0.394937
vt 0.175605 0.011971
vt 0.166386 0.432070
vt 0.441972 0.106068
vt 0.441972 0.214356
vt 0.064721 0.432070
vt 0.263255 0.011971
vt 0.319225 0.099248
vt 0.062608 0.311510
vt 0.382586 0.282998
s 1
usemtl Leaves
f 3/1/1 5/2/2 1/3/3
f 6/4/4 7/5/5 1/3/3
f 9/6/6 2/7/7 1/3/3
f 2/7/7 3/1/1 1/3/3
f 8/8/8 9/6/6 1/3/3
f 7/5/5 8/8/8 1/3/3
f 5/2/2 4/9/9 1/3/3
f 4/9/9 6/4/4 1/3/3
f 12/1/10 14/2/11 10/3/12
f 15/4/13 16/5/14 10/3/12
f 18/6/15 11/7/16 10/3/12
f 11/7/16 12/1/10 10/3/12
f 17/8/17 18/6/15 10/3/12
f 16/5/14 17/8/17 10/3/12
f 14/2/11 13/9/18 10/3/12
f 13/9/18 15/4/13 10/3/12
f 21/1/19 23/2/20 19/3/21
f 24/4/22 25/5/23 19/3/21
f 27/6/24 20/7/25 19/3/21
f 20/7/25 21/1/19 19/3/21
f 26/8/26 27/6/24 19/3/21
f 25/5/23 26/8/26 19/3/21
f 23/2/20 22/9/27 19/3/21
f 22/9/27 24/4/22 19/3/21
f 30/1/28 32/2/29 28/3/30
f 33/4/31 34/5/32 28/3/30
f 36/6/33 29/7/34 28/3/30
f 29/7/34 30/1/28 28/3/30
f 35/8/35 36/6/33 28/3/30
f 34/5/32 35/8/35 28/3/30
f 32/2/29 31/9/36 28/3/30
f 31/9/36 33/4/31 28/3/30
f 39/1/37 41/2/38 37/3/39
f 42/4/40 43/5/41 37/3/39
f 45/6/42 38/7/43 37/3/39
f 38/7/43 39/1/37 37/3/39
f 44/8/44 45/6/42 37/3/39
f 43/5/41 44/8/44 37/3/39
f 41/2/38 40/9/45 37/3/39
f 40/9/45 42/4/40 37/3/39
f 48/1/46 50/2/47 46/3/48
f 51/4/49 52/5/50 46/3/48
f 54/6/51 47/7/52 46/3/48
f 47/7/52 48/1/46 46/3/48
f 53/8/53 54/6/51 46/3/48
f 52/5/50 53/8/53 46/3/48
f 50/2/47 49/9/54 46/3/48
f 49/9/54 51/4/49 46/3/48
f 57/1/55 59/2/56 55/3/57
f 60/4/58 61/5/59 55/3/57
f 63/6/60 56/7/61 55/3/57
f 56/7/61 57/1/55 55/3/57
f 62/8/62 63/6/60 55/3/57
f 61/5/59 62/8/62 55/3/57
f 59/2/56 58/9/63 55/3/57
f 58/9/63 60/4/58 55/3/57
f 66/1/64 68/2/65 64/3/66
f 69/4/67 70/5/68 64/3/66
f 72/6/69 65/7/70 64/3/66
f 65/7/70 66/1/64 64/3/66
f 71/8/71 72/6/69 64/3/66
f 70/5/68 71/8/71 64/3/66
f 68/2/65 67/9/72 64/3/66
f 67/9/72 69/4/67 64/3/66
usemtl Flowers
f 85/10/73 74/11/74 88/12/75
f 80/13/76 82/14/77 88/12/75
f 74/11/74 75/15/78 88/12/75
f 82/14/77 84/16/79 88/12/75
f 75/15/78 73/17/80 88/12/75
f 84/16/79 83/18/81 88/12/75
f 76/19/82 79/20/83 88/12/75
f 83/18/81 86/21/84 88/12/75
f 77/22/85 78/23/86 88/12/75
f 86/21/84 87/24/87 88/12/75
f 78/23/86 76/19/82 88/12/75
f 87/24/87 85/10/73 88/12/75
f 79/20/83 81/25/88 88/12/75
f 73/17/80 77/22/85 88/12/75
f 81/25/88 80/13/76 88/12/75
f 101/10/89 90/11/90 104/12/91
f 96/13/92 98/14/93 104/12/91
f 90/11/90 91/15/94 104/12/91
f 98/14/93 100/16/95 104/12/91
f 91/15/94 89/17/96 104/12/91
f 100/16/95 99/18/97 104/12/91
f 92/19/98 95/20/99 104/12/91
f 99/18/97 102/21/100 104/12/91
f 93/22/101 94/23/102 104/12/91
f 102/21/100 103/24/103 104/12/91
f 94/23/102 92/19/98 104/12/91
f 103/24/103 101/10/89 104/12/91
f 95/20/99 97/25/104 104/12/91
f 89/17/96 93/22/101 104/12/91
f 97/25/104 96/13/92 104/12/91
f 117/10/105 106/11/106 120/12/107
f 112/13/108 114/14/109 120/12/107
f 106/11/106 107/15/110 120/12/107
f 114/14/109 116/16/111 120/12/107
f 107/15/110 105/17/112 120/12/107
f 116/16/111 115/18/113 120/12/107
f 108/19/114 111/20/115 120/12/107
f 115/18/113 118/21/116 120/12/107
f 109/22/117 110/23/118 120/12/107
f 118/21/116 119/24/119 120/12/107
f 110/23/118 108/19/114 120/12/107
f 119/24/119 117/10/105 120/12/107
f 111/20/115 113/25/120 120/12/107
f 105/17/112 109/22/117 120/12/107
f 113/25/120 112/13/108 120/12/107
