# Blender 4.0.2
# www.blender.org
mtllib Petal_6.mtl
o Petal_6
v 0.001913 -0.004206 0.000070
v -0.317473 0.151729 -0.155266
v -0.266123 0.174917 0.162891
v 0.211226 0.139619 0.175948
v 0.028570 0.137150 0.309411
v 0.312368 0.171463 0.062775
v 0.268346 0.143318 -0.205102
v -0.061493 0.122179 -0.355115
v -0.259037 0.126392 -0.218399
v 0.034430 0.357393 -0.307118
v 0.008010 0.338231 -0.227145
v 0.002847 0.319747 -0.306551
v -0.027391 0.298970 -0.289291
v 0.016164 0.017824 -0.008048
v 0.036878 0.538590 -0.122101
v -0.022574 0.457540 -0.099295
v 0.051546 0.499391 -0.148968
v 0.045162 0.462203 -0.166135
v -0.000001 -0.000000 0.000000
v -0.189981 0.391329 -0.099763
v -0.113961 0.323584 -0.116571
v -0.155151 0.396638 -0.064571
v -0.116544 0.391934 -0.050071
v -0.011410 0.028083 -0.016592
v -0.060876 0.235114 -0.019058
v -0.092165 0.333108 -0.032836
v -0.075298 0.285821 -0.023355
v -0.009679 0.349931 -0.052358
v -0.003602 0.252993 -0.027295
v -0.005692 0.303112 -0.036980
v -0.094250 0.286100 -0.091551
v -0.062047 0.204155 -0.056898
v -0.076924 0.247087 -0.071381
v 0.013200 0.248059 -0.192634
v 0.016881 0.180291 -0.121491
v 0.015878 0.217132 -0.154193
v 0.041513 0.353024 -0.074179
v 0.031819 0.255077 -0.042415
v 0.037399 0.305737 -0.055372
v 0.034730 0.265425 -0.181756
v 0.031075 0.191808 -0.114338
v 0.033700 0.231504 -0.145162
v -0.114017 0.319751 -0.038727
v -0.074969 0.226317 -0.022858
v -0.093182 0.274817 -0.028174
v 0.031593 0.366779 -0.051853
v 0.024964 0.264686 -0.026963
v 0.029050 0.317325 -0.036569
v 0.002063 0.175028 -0.120550
v -0.009295 0.240120 -0.191225
v -0.002741 0.210558 -0.153033
v -0.084553 0.212693 -0.034863
v -0.129032 0.299129 -0.057362
v -0.105425 0.257809 -0.043413
v 0.029305 0.244684 -0.054070
v 0.037905 0.338207 -0.091065
v 0.034356 0.293222 -0.069578
v 0.014880 0.276997 -0.157242
v 0.018000 0.199462 -0.098171
v 0.017277 0.241067 -0.124848
vn -0.0035 0.9980 -0.0635
vn 0.3421 0.9282 0.1463
vn 0.4576 0.8877 -0.0498
vn -0.4783 0.8744 -0.0818
vn -0.3707 0.9122 0.1746
vn 0.0221 0.9086 -0.4171
vn -0.3871 0.8840 -0.2622
vn 0.4150 0.8682 -0.2720
vn 0.0145 0.9428 0.3329
vn -0.9813 0.0804 -0.1750
vn -0.9865 0.1361 0.0914
vn -0.6354 -0.0077 -0.7722
vn -0.9238 0.3077 0.2279
vn -0.5602 0.6772 0.4771
vn -0.4852 0.6948 0.5310
vn -0.9992 0.0337 0.0236
vn -0.8065 -0.2920 -0.5141
vn -0.9949 0.0971 0.0285
vn -0.8873 0.3098 0.3416
vn -0.7680 -0.5173 -0.3777
vn -0.7805 -0.4732 -0.4085
vn -0.6671 -0.2643 -0.6965
vn -0.9764 -0.0414 -0.2120
vn -0.9902 0.0149 -0.1388
vn -0.4928 -0.2835 -0.8227
vn 0.7164 0.3821 0.5837
vn 0.9146 0.3853 -0.1224
vn 0.9072 0.3547 -0.2261
vn 0.4647 0.1006 -0.8798
vn 0.2520 0.0142 -0.9676
vn -0.4407 0.5547 0.7057
vn -0.1646 0.6034 0.7802
vn 0.1653 -0.3776 -0.9111
vn 0.1469 -0.3321 -0.9317
vn 0.8454 0.3921 -0.3626
vn 0.5987 0.0516 -0.7993
vn 0.5162 0.0134 -0.8564
vn 0.8650 0.4663 -0.1854
vn -0.9871 0.1211 0.1047
vn -0.9870 0.1238 0.1023
vn -0.2521 0.8085 0.5317
vn -0.2388 0.7792 0.5795
vn 0.0677 -0.1372 -0.9882
vn -0.5068 -0.0885 -0.8575
vn 0.6528 0.6270 0.4251
vn 0.6688 0.5864 0.4569
vn 0.1062 -0.2316 -0.9670
vn -0.4990 -0.1888 -0.8458
vn -0.9982 0.0587 0.0157
vn -0.7985 -0.3808 -0.4663
vn 0.8888 0.4288 -0.1617
vn 0.4887 0.0563 -0.8707
vn -0.9859 0.0473 -0.1603
vn -0.4687 0.6300 0.6192
vn 0.2878 -0.0489 -0.9564
vn 0.3210 -0.1102 -0.9406
vn -0.9868 0.1301 0.0968
vn -0.2036 0.6977 0.6868
vn 0.6984 0.4859 0.5255
vn 0.3339 -0.1349 -0.9329
vt 0.828960 0.199702
vt 0.630593 0.139242
vt 0.644007 0.085181
vt 0.983883 0.343264
vt 0.824961 0.415890
vt 1.001953 0.109835
vt 1.001428 0.248013
vt 0.833076 -0.003874
vt 0.629597 0.292241
vt 0.626738 0.297005
vt 0.267900 0.344257
vt 0.239052 0.329619
vt 0.245615 0.272665
vt 0.383002 0.430722
vt 0.295033 0.431426
vt 0.279260 0.380754
vt 0.334823 0.375294
vt 0.308057 0.283808
vt 0.304400 0.340294
vt 0.372274 0.295268
vt 0.334823 0.375294
vt 0.340369 0.289574
vt 0.277815 0.376113
vt 0.331611 0.371599
vt 0.314085 0.284884
vt 0.306958 0.343238
vt 0.269499 0.349395
vt 0.238316 0.336010
vt 0.267779 0.343870
vt 0.239041 0.329716
vt 0.331611 0.371599
vt 0.336242 0.288838
vt 0.269499 0.349394
vt 0.282538 0.391285
vt 0.340607 0.381949
vt 0.231583 0.394442
vt 0.236127 0.355009
vt 0.277815 0.376113
vt 0.235634 0.359282
vt 0.279260 0.380754
vt 0.308341 0.283859
vt 0.305146 0.341153
vt 0.305146 0.341153
vt 0.304400 0.340294
vt 0.267779 0.343870
vt 0.340607 0.381949
vt 0.351726 0.291601
vt 0.321346 0.286180
vt 0.313833 0.353903
vt 0.314801 0.357746
vt 0.323143 0.295863
vt 0.323056 0.359770
vt 0.279971 0.368444
vt 0.268148 0.356924
vt 0.271306 0.360832
vt 0.242840 0.355018
vt 0.282538 0.391285
vt 0.234340 0.370515
vt 0.237683 0.341501
vt 0.237379 0.344142
vt 0.331857 0.288055
s 1
usemtl Flowers
f 1/1/1 9/2/2 2/3/3
f 6/4/4 7/5/5 1/1/1
f 1/1/1 5/6/6 4/7/7
f 1/1/1 3/8/8 5/6/6
f 8/9/9 9/2/2 1/1/1
f 7/5/5 8/10/9 1/1/1
f 4/7/7 6/4/4 1/1/1
f 3/8/8 1/1/1 2/3/3
f 38/11/10 55/12/11 19/13/12
f 10/14/13 12/15/14 34/16/15 40/17/16
f 59/18/17 41/19/18 14/13/19
f 11/20/20 10/14/13 40/21/16 58/22/21
f 15/14/22 17/15/23 37/23/24 46/24/25
f 32/25/26 52/26/27 24/13/28
f 44/27/29 25/28/30 24/13/28
f 35/29/31 49/30/32 14/13/19
f 16/20/33 15/14/22 46/31/25 28/32/34
f 52/26/27 44/33/29 24/13/28
f 20/14/35 22/15/36 43/34/37 53/35/38
f 17/15/23 18/36/39 56/37/40 37/38/24
f 12/15/14 13/36/41 50/39/42 34/40/15
f 29/41/43 47/42/44 19/13/12
f 47/43/44 38/11/10 19/13/12
f 41/44/18 35/45/31 14/13/19
f 21/20/45 20/14/35 53/46/38 31/47/46
f 47/42/44 29/41/43 30/48/47 48/49/48
f 48/49/48 30/48/47 28/32/34 46/31/25
f 58/22/21 40/21/16 42/50/49 60/51/50
f 60/51/50 42/50/49 41/19/18 59/18/17
f 44/33/29 52/26/27 54/52/51 45/53/52
f 45/53/52 54/52/51 53/35/38 43/34/37
f 46/24/25 37/23/24 39/54/53 48/49/48
f 48/49/48 39/54/53 38/11/10 47/43/44
f 40/17/16 34/16/15 36/55/54 42/50/49
f 42/50/49 36/55/54 35/45/31 41/44/18
f 25/28/30 44/27/29 45/53/52 27/56/55
f 27/56/55 45/53/52 43/57/37 26/58/56
f 37/38/24 56/37/40 57/59/57 39/54/53
f 39/54/53 57/59/57 55/12/11 38/11/10
f 34/40/15 50/39/42 51/60/58 36/55/54
f 36/55/54 51/60/58 49/30/32 35/29/31
f 52/26/27 32/25/26 33/61/59 54/52/51
f 54/52/51 33/61/59 31/47/46 53/46/38
f 22/15/36 23/36/60 26/58/56 43/57/37
