# Blender 4.0.2
# www.blender.org
mtllib Plant_6.mtl
o Plant_6
v 0.171209 -0.028383 -0.028599
v 0.241266 0.357442 0.006007
v 0.282325 0.352868 0.159128
v 0.153393 -0.023809 0.002734
v 0.314869 0.503575 -0.131706
v 0.273339 0.514116 0.007376
v 0.483343 0.638739 -0.024025
v 0.460895 0.673420 0.009532
v 0.483343 0.638739 0.040361
v 0.282325 0.352868 -0.139642
v 0.249468 0.210311 -0.132870
v 0.208408 0.214885 0.004783
v 0.314917 0.503344 0.139251
v 0.183514 -0.028383 0.050617
v 0.249468 0.210311 0.132584
v 0.367755 0.581634 -0.077865
v 0.345307 0.616316 0.008454
v 0.367755 0.581634 0.089806
v 0.088302 -0.030099 -0.101657
v 0.159838 0.386559 -0.158599
v 0.310170 0.384423 -0.107915
v 0.103758 -0.023809 -0.062862
v 0.088051 0.539798 -0.305823
v 0.180643 0.555278 -0.194539
v 0.273417 0.685113 -0.395995
v 0.289154 0.723822 -0.360718
v 0.326989 0.686630 -0.360311
v 0.061583 0.377382 -0.273500
v 0.047266 0.224125 -0.233271
v 0.138869 0.233114 -0.122801
v 0.313521 0.545933 -0.155679
v 0.162656 -0.028458 -0.067160
v 0.268134 0.230382 -0.086150
v 0.163303 0.624390 -0.325247
v 0.222939 0.664343 -0.260728
v 0.302811 0.628342 -0.232320
v -0.028425 -0.030181 -0.082319
v -0.044420 0.361081 -0.161237
v 0.067242 0.358682 -0.273837
v 0.012994 -0.023809 -0.074459
v -0.206506 0.504016 -0.158934
v -0.065957 0.519385 -0.193419
v -0.204145 0.638443 -0.362130
v -0.165311 0.675245 -0.360478
v -0.148568 0.639960 -0.394598
v -0.190650 0.351641 -0.123176
v -0.162281 0.207911 -0.094760
v -0.022952 0.217163 -0.128789
v 0.027364 0.510165 -0.295606
v 0.043212 -0.028525 -0.124531
v 0.066855 0.214167 -0.228622
v -0.189958 0.582920 -0.233681
v -0.105581 0.620966 -0.258635
v -0.045227 0.586871 -0.318233
v -0.085986 -0.028131 0.042820
v -0.152343 0.474667 0.012870
v -0.208947 0.477081 -0.181862
v -0.058559 -0.023809 -0.000172
v -0.220055 0.665306 0.199850
v -0.186536 0.679143 0.017918
v -0.409798 0.857808 0.076667
v -0.388232 0.901333 0.032846
v -0.415001 0.859707 -0.006361
v -0.184806 0.468267 0.203413
v -0.150385 0.282112 0.188226
v -0.117275 0.288277 0.007993
v -0.242000 0.673007 -0.149563
v -0.093056 -0.026019 -0.064413
v -0.171834 0.289944 -0.154088
v -0.281133 0.772146 0.136383
v -0.263830 0.817228 0.024523
v -0.294681 0.777093 -0.079835
v 0.000453 -0.030181 0.116902
v -0.042347 0.361081 0.185107
v -0.200859 0.358682 0.189738
v -0.024141 -0.023809 0.082661
v 0.076684 0.504016 0.295148
v -0.048921 0.519385 0.223269
v -0.065069 0.638443 0.440751
v -0.092069 0.675245 0.412790
v -0.127716 0.639960 0.425974
v 0.089839 0.351641 0.258311
v 0.088867 0.207911 0.218169
v -0.035540 0.217163 0.146801
v -0.186967 0.510165 0.232995
v -0.080546 -0.028525 0.098116
v -0.169416 0.214167 0.157243
v 0.013178 0.582920 0.337903
v -0.065158 0.620966 0.297832
v -0.149963 0.586871 0.299419
v 0.136763 -0.018887 0.086659
v 0.153528 0.372375 0.181521
v 0.044964 0.369976 0.297112
v 0.093779 -0.012516 0.096334
v 0.330836 0.438194 0.224319
v 0.197740 0.470739 0.273368
v 0.328424 0.366421 0.457144
v 0.303841 0.402435 0.488193
v 0.270586 0.362753 0.485191
v 0.298670 0.362934 0.139504
v 0.269540 0.219205 0.111869
v 0.131186 0.228456 0.149668
v 0.087369 0.422590 0.342188
v 0.064931 -0.017232 0.147207
v 0.044123 0.225461 0.251902
v 0.324337 0.434252 0.333996
v 0.252359 0.467259 0.388026
v 0.173718 0.424700 0.407032
v 0.199728 -0.018702 0.069309
v 0.283828 0.227202 0.169804
v 0.241805 0.216370 0.270524
v 0.175493 -0.012516 0.087254
v 0.415391 0.250557 0.158556
v 0.346539 0.275342 0.227642
v 0.459671 0.166750 0.297850
v 0.456071 0.188013 0.327933
v 0.429026 0.164559 0.330072
v 0.365022 0.215838 0.104698
v 0.321216 0.126218 0.078269
v 0.243319 0.137566 0.138937
v 0.286327 0.241255 0.294057
v 0.168571 -0.021237 0.126270
v 0.211739 0.126690 0.225604
v 0.436726 0.231496 0.228991
v 0.408015 0.250964 0.285480
v 0.356923 0.225791 0.312904
v -0.069110 -0.018758 0.091808
v -0.193101 0.227146 0.134212
v -0.272013 0.216314 0.058824
v -0.077155 -0.012572 0.062745
v -0.229846 0.250501 0.261039
v -0.269600 0.275286 0.171971
v -0.375750 0.166694 0.252347
v -0.402534 0.187957 0.238184
v -0.394819 0.164503 0.212175
v -0.161494 0.215783 0.233370
v -0.121097 0.126162 0.201976
v -0.149747 0.137511 0.107489
v -0.309964 0.241200 0.091926
v -0.111083 -0.021293 0.042275
v -0.219293 0.126634 0.046893
v -0.303245 0.231440 0.255659
v -0.345656 0.250908 0.208578
v -0.352904 0.225735 0.151046
v 0.037227 -0.018758 -0.146021
v 0.084585 0.227146 -0.268205
v 0.193074 0.216314 -0.280071
v 0.064647 -0.012572 -0.133470
v 0.011177 0.250501 -0.377961
v 0.104929 0.275286 -0.351054
v 0.111744 0.166694 -0.484026
v 0.139823 0.187957 -0.495408
v 0.154762 0.164503 -0.472762
v -0.011645 0.215783 -0.307842
v -0.013622 0.126162 -0.256718
v 0.077130 0.137511 -0.217825
v 0.192169 0.241200 -0.330421
v 0.102152 -0.021293 -0.146259
v 0.168269 0.126634 -0.232044
v 0.062539 0.231440 -0.430670
v 0.125870 0.250908 -0.432822
v 0.174564 0.225735 -0.401337
vn -0.9770 0.2134 0.0007
vn -0.9379 0.2021 0.2820
vn -0.8688 0.3812 0.3160
vn -0.9024 0.4308 0.0040
vn -0.9820 0.1882 0.0161
vn -0.9112 0.1644 0.3777
vn -0.9300 0.1795 0.3209
vn -0.9801 0.1981 0.0132
vn -0.5720 0.8202 0.0116
vn -0.5729 0.6855 0.4493
vn -0.2596 0.7715 0.5809
vn -0.3150 0.9489 0.0187
vn -0.8711 0.3816 -0.3092
vn -0.9370 0.2080 -0.2806
vn -0.5774 0.6968 -0.4255
vn -0.9324 0.2010 -0.3005
vn -0.9245 0.1870 -0.3322
vn -0.2589 0.7908 -0.5546
vn -0.5411 0.2502 0.8029
vn -0.2841 0.2443 0.9271
vn -0.2181 0.4116 0.8849
vn -0.5001 0.4515 0.7389
vn -0.5288 0.2118 0.8219
vn -0.1590 0.1916 0.9685
vn -0.2343 0.2162 0.9478
vn -0.5315 0.2287 0.8156
vn -0.3198 0.8249 0.4661
vn 0.0549 0.6918 0.7200
vn 0.3476 0.7697 0.5354
vn -0.1768 0.9496 0.2587
vn -0.7438 0.3974 0.5374
vn -0.7538 0.2364 0.6131
vn -0.6953 0.6824 0.2256
vn -0.7752 0.2227 0.5912
vn -0.8058 0.1996 0.5575
vn -0.6361 0.7622 -0.1203
vn 0.4840 0.2496 0.8387
vn 0.7076 0.2436 0.6633
vn 0.6960 0.4184 0.5835
vn 0.4417 0.4610 0.7697
vn 0.4811 0.2141 0.8501
vn 0.7674 0.2171 0.6033
vn 0.7335 0.2257 0.6411
vn 0.4834 0.2294 0.8448
vn 0.2689 0.8371 0.4764
vn 0.6545 0.7109 0.2575
vn 0.6094 0.7886 -0.0825
vn 0.1417 0.9578 0.2502
vn 0.1568 0.4042 0.9012
vn 0.2212 0.2360 0.9462
vn -0.1033 0.7017 0.7049
vn 0.1833 0.2151 0.9592
vn 0.1256 0.1805 0.9755
vn -0.3810 0.7811 0.4947
vn 0.9825 0.1767 -0.0581
vn 0.9403 0.1749 -0.2920
vn 0.8898 0.3291 -0.3161
vn 0.9292 0.3658 -0.0534
vn 0.9879 0.1464 -0.0514
vn 0.9193 0.1543 -0.3621
vn 0.9335 0.1603 -0.3207
vn 0.9857 0.1594 -0.0552
vn 0.6554 0.7545 -0.0347
vn 0.6483 0.6279 -0.4306
vn 0.3282 0.7582 -0.5635
vn 0.4328 0.9012 -0.0240
vn 0.9246 0.3171 0.2113
vn 0.9692 0.1691 0.1790
vn 0.7018 0.6191 0.3525
vn 0.9651 0.1520 0.2135
vn 0.9562 0.1237 0.2651
vn 0.3971 0.7515 0.5269
vn 0.2274 0.2496 -0.9413
vn -0.0556 0.2436 -0.9683
vn -0.1022 0.4184 -0.9025
vn 0.2104 0.4610 -0.8621
vn 0.2373 0.2141 -0.9475
vn -0.1403 0.2171 -0.9660
vn -0.0897 0.2257 -0.9701
vn 0.2320 0.2294 -0.9453
vn 0.1335 0.8371 -0.5305
vn -0.2968 0.7109 -0.6376
vn -0.4984 0.7886 -0.3602
vn 0.0698 0.9578 -0.2789
vn 0.5075 0.4042 -0.7610
vn 0.4919 0.2360 -0.8381
vn 0.5607 0.7017 -0.4396
vn 0.5283 0.2151 -0.8214
vn 0.5813 0.1805 -0.7934
vn 0.6170 0.7811 -0.0959
vn -0.4400 0.5025 -0.7442
vn -0.6514 0.5119 -0.5601
vn -0.4897 0.8513 -0.1883
vn -0.1877 0.9488 -0.2541
vn -0.5288 0.2402 -0.8141
vn -0.7835 0.2171 -0.5822
vn -0.7507 0.2257 -0.6209
vn -0.5222 0.2423 -0.8176
vn 0.1016 0.9283 0.3576
vn -0.3401 0.8288 0.4444
vn -0.3434 0.6067 0.7170
vn 0.2109 0.7863 0.5807
vn 0.0583 0.8936 -0.4450
vn -0.1847 0.5152 -0.8369
vn 0.4530 0.8889 0.0676
vn -0.2396 0.2374 -0.9414
vn -0.2271 0.2356 -0.9449
vn 0.6929 0.6823 0.2329
vn -0.5653 0.7032 -0.4312
vn -0.6950 0.6954 -0.1826
vn -0.3550 0.9223 0.1526
vn -0.0812 0.9967 -0.0040
vn -0.7204 0.4751 -0.5053
vn -0.8797 0.4302 -0.2024
vn -0.8612 0.4434 -0.2486
vn -0.7152 0.4772 -0.5107
vn 0.3909 0.8070 0.4426
vn -0.0047 0.7420 0.6703
vn 0.0439 0.4666 0.8834
vn 0.5411 0.6072 0.5818
vn 0.0695 0.9577 -0.2793
vn -0.3597 0.7068 -0.6091
vn 0.6075 0.7933 0.0401
vn -0.4984 0.4676 -0.7300
vn -0.4884 0.4652 -0.7383
vn 0.8461 0.5288 0.0670
vn 0.6054 0.7032 -0.3728
vn 0.4200 0.6954 -0.5831
vn -0.0150 0.9223 -0.3861
vn 0.0329 0.9967 -0.0743
vn 0.7303 0.4751 -0.4909
vn 0.5048 0.4302 -0.7484
vn 0.5413 0.4434 -0.7145
vn 0.7334 0.4772 -0.4841
vn -0.5534 0.8070 0.2059
vn -0.6239 0.7420 -0.2451
vn -0.8402 0.4666 -0.2763
vn -0.7373 0.6072 0.2961
vn 0.2357 0.9577 0.1652
vn 0.6976 0.7068 -0.1170
vn -0.2556 0.7933 0.5526
vn 0.8603 0.4676 -0.2030
vn 0.8644 0.4652 -0.1907
vn -0.3663 0.5288 0.7656
vn -0.1044 0.7032 0.7033
vn 0.1759 0.6954 0.6967
vn 0.3051 0.9223 0.2371
vn 0.0357 0.9967 0.0730
vn -0.0944 0.4751 0.8749
vn 0.2478 0.4302 0.8680
vn 0.1984 0.4434 0.8741
vn -0.1016 0.4772 0.8729
vn 0.1987 0.8070 -0.5561
vn 0.5892 0.7420 -0.3197
vn 0.7523 0.4666 -0.4652
vn 0.2480 0.6072 -0.7549
vn -0.2782 0.9577 0.0741
vn -0.3595 0.7068 0.6092
vn -0.2584 0.7933 -0.5513
vn -0.3984 0.4676 0.7891
vn -0.4105 0.4652 0.7843
vn -0.3501 0.5288 -0.7732
vt 0.638076 0.708807
vt 0.729499 0.708807
vt 0.717631 0.806513
vt 0.638893 0.806513
vt 0.636122 0.475208
vt 0.663895 0.475208
vt 0.713651 0.621460
vt 0.637345 0.621460
vt 0.639537 0.883489
vt 0.688110 0.883489
vt 0.658588 0.960465
vt 0.640181 0.960465
vt 0.555853 0.806513
vt 0.551114 0.708808
vt 0.587999 0.883489
vt 0.555158 0.621460
vt 0.622312 0.475208
vt 0.620145 0.960465
s 1
usemtl Leaves
f 2/1/1 3/2/2 13/3/3 6/4/4
f 4/5/5 14/6/6 15/7/7 12/8/8
f 17/9/9 18/10/10 9/11/11 8/12/12
f 6/4/4 5/13/13 10/14/14 2/1/1
f 17/9/9 16/15/15 5/13/13 6/4/4
f 12/8/8 15/7/7 3/2/2 2/1/1
f 12/8/8 11/16/16 1/17/17 4/5/5
f 10/14/14 11/16/16 12/8/8 2/1/1
f 8/12/12 7/18/18 16/15/15 17/9/9
f 6/4/4 13/3/3 18/10/10 17/9/9
f 20/1/19 21/2/20 31/3/21 24/4/22
f 22/5/23 32/6/24 33/7/25 30/8/26
f 35/9/27 36/10/28 27/11/29 26/12/30
f 24/4/22 23/13/31 28/14/32 20/1/19
f 35/9/27 34/15/33 23/13/31 24/4/22
f 30/8/26 33/7/25 21/2/20 20/1/19
f 30/8/26 29/16/34 19/17/35 22/5/23
f 28/14/32 29/16/34 30/8/26 20/1/19
f 26/12/30 25/18/36 34/15/33 35/9/27
f 24/4/22 31/3/21 36/10/28 35/9/27
f 38/1/37 39/2/38 49/3/39 42/4/40
f 40/5/41 50/6/42 51/7/43 48/8/44
f 53/9/45 54/10/46 45/11/47 44/12/48
f 42/4/40 41/13/49 46/14/50 38/1/37
f 53/9/45 52/15/51 41/13/49 42/4/40
f 48/8/44 51/7/43 39/2/38 38/1/37
f 48/8/44 47/16/52 37/17/53 40/5/41
f 46/14/50 47/16/52 48/8/44 38/1/37
f 44/12/48 43/18/54 52/15/51 53/9/45
f 42/4/40 49/3/39 54/10/46 53/9/45
f 56/1/55 57/2/56 67/3/57 60/4/58
f 58/5/59 68/6/60 69/7/61 66/8/62
f 71/9/63 72/10/64 63/11/65 62/12/66
f 60/4/58 59/13/67 64/14/68 56/1/55
f 71/9/63 70/15/69 59/13/67 60/4/58
f 66/8/62 69/7/61 57/2/56 56/1/55
f 66/8/62 65/16/70 55/17/71 58/5/59
f 64/14/68 65/16/70 66/8/62 56/1/55
f 62/12/66 61/18/72 70/15/69 71/9/63
f 60/4/58 67/3/57 72/10/64 71/9/63
f 74/1/73 75/2/74 85/3/75 78/4/76
f 76/5/77 86/6/78 87/7/79 84/8/80
f 89/9/81 90/10/82 81/11/83 80/12/84
f 78/4/76 77/13/85 82/14/86 74/1/73
f 89/9/81 88/15/87 77/13/85 78/4/76
f 84/8/80 87/7/79 75/2/74 74/1/73
f 84/8/80 83/16/88 73/17/89 76/5/77
f 82/14/86 83/16/88 84/8/80 74/1/73
f 80/12/84 79/18/90 88/15/87 89/9/81
f 78/4/76 85/3/75 90/10/82 89/9/81
f 92/1/91 93/2/92 103/3/93 96/4/94
f 94/5/95 104/6/96 105/7/97 102/8/98
f 107/9/99 108/10/100 99/11/101 98/12/102
f 96/4/94 95/13/103 100/14/104 92/1/91
f 107/9/99 106/15/105 95/13/103 96/4/94
f 102/8/98 105/7/97 93/2/92 92/1/91
f 102/8/98 101/16/106 91/17/107 94/5/95
f 100/14/104 101/16/106 102/8/98 92/1/91
f 98/12/102 97/18/108 106/15/105 107/9/99
f 96/4/94 103/3/93 108/10/100 107/9/99
f 110/1/109 111/2/110 121/3/111 114/4/112
f 112/5/113 122/6/114 123/7/115 120/8/116
f 125/9/117 126/10/118 117/11/119 116/12/120
f 114/4/112 113/13/121 118/14/122 110/1/109
f 125/9/117 124/15/123 113/13/121 114/4/112
f 120/8/116 123/7/115 111/2/110 110/1/109
f 120/8/116 119/16/124 109/17/125 112/5/113
f 118/14/122 119/16/124 120/8/116 110/1/109
f 116/12/120 115/18/126 124/15/123 125/9/117
f 114/4/112 121/3/111 126/10/118 125/9/117
f 128/1/127 129/2/128 139/3/129 132/4/130
f 130/5/131 140/6/132 141/7/133 138/8/134
f 143/9/135 144/10/136 135/11/137 134/12/138
f 132/4/130 131/13/139 136/14/140 128/1/127
f 143/9/135 142/15/141 131/13/139 132/4/130
f 138/8/134 141/7/133 129/2/128 128/1/127
f 138/8/134 137/16/142 127/17/143 130/5/131
f 136/14/140 137/16/142 138/8/134 128/1/127
f 134/12/138 133/18/144 142/15/141 143/9/135
f 132/4/130 139/3/129 144/10/136 143/9/135
f 146/1/145 147/2/146 157/3/147 150/4/148
f 148/5/149 158/6/150 159/7/151 156/8/152
f 161/9/153 162/10/154 153/11/155 152/12/156
f 150/4/148 149/13/157 154/14/158 146/1/145
f 161/9/153 160/15/159 149/13/157 150/4/148
f 156/8/152 159/7/151 147/2/146 146/1/145
f 156/8/152 155/16/160 145/17/161 148/5/149
f 154/14/158 155/16/160 156/8/152 146/1/145
f 152/12/156 151/18/162 160/15/159 161/9/153
f 150/4/148 157/3/147 162/10/154 161/9/153
