<?xml version="1.0" encoding="UTF-8"?>
<svg xmlns="http://www.w3.org/2000/svg" width="128" height="128" viewBox="0 0 128 128" shape-rendering="crispEdges">
<rect width="100%" height="100%" fill="white"/>
<rect x="28" y="0" width="4" height="4" fill="black" />
<rect x="32" y="0" width="4" height="4" fill="black" />
<rect x="36" y="0" width="4" height="4" fill="black" />
<rect x="40" y="0" width="4" height="4" fill="black" />
<rect x="28" y="4" width="4" height="4" fill="black" />
<rect x="32" y="4" width="4" height="4" fill="black" />
<rect x="36" y="4" width="4" height="4" fill="black" />
<rect x="40" y="4" width="4" height="4" fill="black" />
<rect x="88" y="4" width="4" height="4" fill="black" />
<rect x="92" y="4" width="4" height="4" fill="black" />
<rect x="96" y="4" width="4" height="4" fill="black" />
<rect x="28" y="8" width="4" height="4" fill="black" />
<rect x="32" y="8" width="4" height="4" fill="black" />
<rect x="36" y="8" width="4" height="4" fill="black" />
<rect x="40" y="8" width="4" height="4" fill="black" />
<rect x="44" y="8" width="4" height="4" fill="black" />
<rect x="68" y="8" width="4" height="4" fill="black" />
<rect x="72" y="8" width="4" height="4" fill="black" />
<rect x="76" y="8" width="4" height="4" fill="black" />
<rect x="80" y="8" width="4" height="4" fill="black" />
<rect x="84" y="8" width="4" height="4" fill="black" />
<rect x="88" y="8" width="4" height="4" fill="black" />
<rect x="92" y="8" width="4" height="4" fill="black" />
<rect x="96" y="8" width="4" height="4" fill="black" />
<rect x="32" y="12" width="4" height="4" fill="black" />
<rect x="36" y="12" width="4" height="4" fill="black" />
<rect x="40" y="12" width="4" height="4" fill="black" />
<rect x="44" y="12" width="4" height="4" fill="black" />
<rect x="48" y="12" width="4" height="4" fill="black" />
<rect x="52" y="12" width="4" height="4" fill="black" />
<rect x="56" y="12" width="4" height="4" fill="black" />
<rect x="60" y="12" width="4" height="4" fill="black" />
<rect x="68" y="12" width="4" height="4" fill="black" />
<rect x="72" y="12" width="4" height="4" fill="black" />
<rect x="76" y="12" width="4" height="4" fill="black" />
<rect x="80" y="12" width="4" height="4" fill="black" />
<rect x="84" y="12" width="4" height="4" fill="black" />
<rect x="88" y="12" width="4" height="4" fill="black" />
<rect x="92" y="12" width="4" height="4" fill="black" />
<rect x="96" y="12" width="4" height="4" fill="black" />
<rect x="32" y="16" width="4" height="4" fill="black" />
<rect x="36" y="16" width="4" height="4" fill="black" />
<rect x="40" y="16" width="4" height="4" fill="black" />
<rect x="44" y="16" width="4" height="4" fill="black" />
<rect x="48" y="16" width="4" height="4" fill="black" />
<rect x="52" y="16" width="4" height="4" fill="black" />
<rect x="56" y="16" width="4" height="4" fill="black" />
<rect x="60" y="16" width="4" height="4" fill="black" />
<rect x="68" y="16" width="4" height="4" fill="black" />
<rect x="72" y="16" width="4" height="4" fill="black" />
<rect x="76" y="16" width="4" height="4" fill="black" />
<rect x="80" y="16" width="4" height="4" fill="black" />
<rect x="84" y="16" width="4" height="4" fill="black" />
<rect x="88" y="16" width="4" height="4" fill="black" />
<rect x="92" y="16" width="4" height="4" fill="black" />
<rect x="96" y="16" width="4" height="4" fill="black" />
<rect x="28" y="20" width="4" height="4" fill="black" />
<rect x="32" y="20" width="4" height="4" fill="black" />
<rect x="36" y="20" width="4" height="4" fill="black" />
<rect x="40" y="20" width="4" height="4" fill="black" />
<rect x="44" y="20" width="4" height="4" fill="black" />
<rect x="48" y="20" width="4" height="4" fill="black" />
<rect x="52" y="20" width="4" height="4" fill="black" />
<rect x="56" y="20" width="4" height="4" fill="black" />
<rect x="60" y="20" width="4" height="4" fill="black" />
<rect x="68" y="20" width="4" height="4" fill="black" />
<rect x="72" y="20" width="4" height="4" fill="black" />
<rect x="76" y="20" width="4" height="4" fill="black" />
<rect x="80" y="20" width="4" height="4" fill="black" />
<rect x="84" y="20" width="4" height="4" fill="black" />
<rect x="88" y="20" width="4" height="4" fill="black" />
<rect x="20" y="24" width="4" height="4" fill="black" />
<rect x="24" y="24" width="4" height="4" fill="black" />
<rect x="28" y="24" width="4" height="4" fill="black" />
<rect x="32" y="24" width="4" height="4" fill="black" />
<rect x="36" y="24" width="4" height="4" fill="black" />
<rect x="40" y="24" width="4" height="4" fill="black" />
<rect x="72" y="24" width="4" height="4" fill="black" />
<rect x="76" y="24" width="4" height="4" fill="black" />
<rect x="80" y="24" width="4" height="4" fill="black" />
<rect x="84" y="24" width="4" height="4" fill="black" />
<rect x="88" y="24" width="4" height="4" fill="black" />
<rect x="92" y="24" width="4" height="4" fill="black" />
<rect x="96" y="24" width="4" height="4" fill="black" />
<rect x="100" y="24" width="4" height="4" fill="black" />
<rect x="104" y="24" width="4" height="4" fill="black" />
<rect x="20" y="28" width="4" height="4" fill="black" />
<rect x="24" y="28" width="4" height="4" fill="black" />
<rect x="28" y="28" width="4" height="4" fill="black" />
<rect x="32" y="28" width="4" height="4" fill="black" />
<rect x="36" y="28" width="4" height="4" fill="black" />
<rect x="40" y="28" width="4" height="4" fill="black" />
<rect x="44" y="28" width="4" height="4" fill="black" />
<rect x="48" y="28" width="4" height="4" fill="black" />
<rect x="52" y="28" width="4" height="4" fill="black" />
<rect x="72" y="28" width="4" height="4" fill="black" />
<rect x="76" y="28" width="4" height="4" fill="black" />
<rect x="80" y="28" width="4" height="4" fill="black" />
<rect x="84" y="28" width="4" height="4" fill="black" />
<rect x="88" y="28" width="4" height="4" fill="black" />
<rect x="92" y="28" width="4" height="4" fill="black" />
<rect x="96" y="28" width="4" height="4" fill="black" />
<rect x="100" y="28" width="4" height="4" fill="black" />
<rect x="104" y="28" width="4" height="4" fill="black" />
<rect x="20" y="32" width="4" height="4" fill="black" />
<rect x="24" y="32" width="4" height="4" fill="black" />
<rect x="28" y="32" width="4" height="4" fill="black" />
<rect x="32" y="32" width="4" height="4" fill="black" />
<rect x="36" y="32" width="4" height="4" fill="black" />
<rect x="40" y="32" width="4" height="4" fill="black" />
<rect x="44" y="32" width="4" height="4" fill="black" />
<rect x="48" y="32" width="4" height="4" fill="black" />
<rect x="52" y="32" width="4" height="4" fill="black" />
<rect x="72" y="32" width="4" height="4" fill="black" />
<rect x="76" y="32" width="4" height="4" fill="black" />
<rect x="80" y="32" width="4" height="4" fill="black" />
<rect x="84" y="32" width="4" height="4" fill="black" />
<rect x="88" y="32" width="4" height="4" fill="black" />
<rect x="92" y="32" width="4" height="4" fill="black" />
<rect x="96" y="32" width="4" height="4" fill="black" />
<rect x="100" y="32" width="4" height="4" fill="black" />
<rect x="104" y="32" width="4" height="4" fill="black" />
<rect x="32" y="36" width="4" height="4" fill="black" />
<rect x="36" y="36" width="4" height="4" fill="black" />
<rect x="40" y="36" width="4" height="4" fill="black" />
<rect x="44" y="36" width="4" height="4" fill="black" />
<rect x="48" y="36" width="4" height="4" fill="black" />
<rect x="52" y="36" width="4" height="4" fill="black" />
<rect x="72" y="36" width="4" height="4" fill="black" />
<rect x="76" y="36" width="4" height="4" fill="black" />
<rect x="80" y="36" width="4" height="4" fill="black" />
<rect x="84" y="36" width="4" height="4" fill="black" />
<rect x="88" y="36" width="4" height="4" fill="black" />
<rect x="92" y="36" width="4" height="4" fill="black" />
<rect x="96" y="36" width="4" height="4" fill="black" />
<rect x="112" y="36" width="4" height="4" fill="black" />
<rect x="116" y="36" width="4" height="4" fill="black" />
<rect x="120" y="36" width="4" height="4" fill="black" />
<rect x="4" y="40" width="4" height="4" fill="black" />
<rect x="8" y="40" width="4" height="4" fill="black" />
<rect x="12" y="40" width="4" height="4" fill="black" />
<rect x="112" y="40" width="4" height="4" fill="black" />
<rect x="116" y="40" width="4" height="4" fill="black" />
<rect x="120" y="40" width="4" height="4" fill="black" />
<rect x="124" y="40" width="4" height="4" fill="black" />
<rect x="0" y="44" width="4" height="4" fill="black" />
<rect x="4" y="44" width="4" height="4" fill="black" />
<rect x="8" y="44" width="4" height="4" fill="black" />
<rect x="12" y="44" width="4" height="4" fill="black" />
<rect x="28" y="44" width="4" height="4" fill="black" />
<rect x="32" y="44" width="4" height="4" fill="black" />
<rect x="36" y="44" width="4" height="4" fill="black" />
<rect x="112" y="44" width="4" height="4" fill="black" />
<rect x="116" y="44" width="4" height="4" fill="black" />
<rect x="120" y="44" width="4" height="4" fill="black" />
<rect x="124" y="44" width="4" height="4" fill="black" />
<rect x="0" y="48" width="4" height="4" fill="black" />
<rect x="4" y="48" width="4" height="4" fill="black" />
<rect x="8" y="48" width="4" height="4" fill="black" />
<rect x="12" y="48" width="4" height="4" fill="black" />
<rect x="24" y="48" width="4" height="4" fill="black" />
<rect x="28" y="48" width="4" height="4" fill="black" />
<rect x="32" y="48" width="4" height="4" fill="black" />
<rect x="36" y="48" width="4" height="4" fill="black" />
<rect x="96" y="48" width="4" height="4" fill="black" />
<rect x="100" y="48" width="4" height="4" fill="black" />
<rect x="104" y="48" width="4" height="4" fill="black" />
<rect x="108" y="48" width="4" height="4" fill="black" />
<rect x="112" y="48" width="4" height="4" fill="black" />
<rect x="116" y="48" width="4" height="4" fill="black" />
<rect x="120" y="48" width="4" height="4" fill="black" />
<rect x="124" y="48" width="4" height="4" fill="black" />
<rect x="0" y="52" width="4" height="4" fill="black" />
<rect x="4" y="52" width="4" height="4" fill="black" />
<rect x="8" y="52" width="4" height="4" fill="black" />
<rect x="12" y="52" width="4" height="4" fill="black" />
<rect x="16" y="52" width="4" height="4" fill="black" />
<rect x="20" y="52" width="4" height="4" fill="black" />
<rect x="24" y="52" width="4" height="4" fill="black" />
<rect x="28" y="52" width="4" height="4" fill="black" />
<rect x="32" y="52" width="4" height="4" fill="black" />
<rect x="36" y="52" width="4" height="4" fill="black" />
<rect x="96" y="52" width="4" height="4" fill="black" />
<rect x="100" y="52" width="4" height="4" fill="black" />
<rect x="104" y="52" width="4" height="4" fill="black" />
<rect x="108" y="52" width="4" height="4" fill="black" />
<rect x="112" y="52" width="4" height="4" fill="black" />
<rect x="116" y="52" width="4" height="4" fill="black" />
<rect x="120" y="52" width="4" height="4" fill="black" />
<rect x="124" y="52" width="4" height="4" fill="black" />
<rect x="0" y="56" width="4" height="4" fill="black" />
<rect x="4" y="56" width="4" height="4" fill="black" />
<rect x="8" y="56" width="4" height="4" fill="black" />
<rect x="12" y="56" width="4" height="4" fill="black" />
<rect x="16" y="56" width="4" height="4" fill="black" />
<rect x="20" y="56" width="4" height="4" fill="black" />
<rect x="24" y="56" width="4" height="4" fill="black" />
<rect x="28" y="56" width="4" height="4" fill="black" />
<rect x="32" y="56" width="4" height="4" fill="black" />
<rect x="88" y="56" width="4" height="4" fill="black" />
<rect x="92" y="56" width="4" height="4" fill="black" />
<rect x="96" y="56" width="4" height="4" fill="black" />
<rect x="100" y="56" width="4" height="4" fill="black" />
<rect x="104" y="56" width="4" height="4" fill="black" />
<rect x="108" y="56" width="4" height="4" fill="black" />
<rect x="112" y="56" width="4" height="4" fill="black" />
<rect x="0" y="60" width="4" height="4" fill="black" />
<rect x="4" y="60" width="4" height="4" fill="black" />
<rect x="8" y="60" width="4" height="4" fill="black" />
<rect x="12" y="60" width="4" height="4" fill="black" />
<rect x="16" y="60" width="4" height="4" fill="black" />
<rect x="20" y="60" width="4" height="4" fill="black" />
<rect x="24" y="60" width="4" height="4" fill="black" />
<rect x="28" y="60" width="4" height="4" fill="black" />
<rect x="32" y="60" width="4" height="4" fill="black" />
<rect x="88" y="60" width="4" height="4" fill="black" />
<rect x="92" y="60" width="4" height="4" fill="black" />
<rect x="96" y="60" width="4" height="4" fill="black" />
<rect x="100" y="60" width="4" height="4" fill="black" />
<rect x="104" y="60" width="4" height="4" fill="black" />
<rect x="108" y="60" width="4" height="4" fill="black" />
<rect x="112" y="60" width="4" height="4" fill="black" />
<rect x="0" y="64" width="4" height="4" fill="black" />
<rect x="4" y="64" width="4" height="4" fill="black" />
<rect x="8" y="64" width="4" height="4" fill="black" />
<rect x="12" y="64" width="4" height="4" fill="black" />
<rect x="16" y="64" width="4" height="4" fill="black" />
<rect x="20" y="64" width="4" height="4" fill="black" />
<rect x="24" y="64" width="4" height="4" fill="black" />
<rect x="28" y="64" width="4" height="4" fill="black" />
<rect x="32" y="64" width="4" height="4" fill="black" />
<rect x="36" y="64" width="4" height="4" fill="black" />
<rect x="40" y="64" width="4" height="4" fill="black" />
<rect x="84" y="64" width="4" height="4" fill="black" />
<rect x="88" y="64" width="4" height="4" fill="black" />
<rect x="92" y="64" width="4" height="4" fill="black" />
<rect x="96" y="64" width="4" height="4" fill="black" />
<rect x="100" y="64" width="4" height="4" fill="black" />
<rect x="104" y="64" width="4" height="4" fill="black" />
<rect x="108" y="64" width="4" height="4" fill="black" />
<rect x="112" y="64" width="4" height="4" fill="black" />
<rect x="0" y="68" width="4" height="4" fill="black" />
<rect x="4" y="68" width="4" height="4" fill="black" />
<rect x="8" y="68" width="4" height="4" fill="black" />
<rect x="12" y="68" width="4" height="4" fill="black" />
<rect x="16" y="68" width="4" height="4" fill="black" />
<rect x="20" y="68" width="4" height="4" fill="black" />
<rect x="24" y="68" width="4" height="4" fill="black" />
<rect x="28" y="68" width="4" height="4" fill="black" />
<rect x="32" y="68" width="4" height="4" fill="black" />
<rect x="36" y="68" width="4" height="4" fill="black" />
<rect x="40" y="68" width="4" height="4" fill="black" />
<rect x="84" y="68" width="4" height="4" fill="black" />
<rect x="88" y="68" width="4" height="4" fill="black" />
<rect x="92" y="68" width="4" height="4" fill="black" />
<rect x="96" y="68" width="4" height="4" fill="black" />
<rect x="100" y="68" width="4" height="4" fill="black" />
<rect x="104" y="68" width="4" height="4" fill="black" />
<rect x="108" y="68" width="4" height="4" fill="black" />
<rect x="112" y="68" width="4" height="4" fill="black" />
<rect x="116" y="68" width="4" height="4" fill="black" />
<rect x="120" y="68" width="4" height="4" fill="black" />
<rect x="124" y="68" width="4" height="4" fill="black" />
<rect x="0" y="72" width="4" height="4" fill="black" />
<rect x="4" y="72" width="4" height="4" fill="black" />
<rect x="8" y="72" width="4" height="4" fill="black" />
<rect x="12" y="72" width="4" height="4" fill="black" />
<rect x="16" y="72" width="4" height="4" fill="black" />
<rect x="20" y="72" width="4" height="4" fill="black" />
<rect x="24" y="72" width="4" height="4" fill="black" />
<rect x="28" y="72" width="4" height="4" fill="black" />
<rect x="32" y="72" width="4" height="4" fill="black" />
<rect x="36" y="72" width="4" height="4" fill="black" />
<rect x="40" y="72" width="4" height="4" fill="black" />
<rect x="84" y="72" width="4" height="4" fill="black" />
<rect x="88" y="72" width="4" height="4" fill="black" />
<rect x="92" y="72" width="4" height="4" fill="black" />
<rect x="96" y="72" width="4" height="4" fill="black" />
<rect x="100" y="72" width="4" height="4" fill="black" />
<rect x="104" y="72" width="4" height="4" fill="black" />
<rect x="108" y="72" width="4" height="4" fill="black" />
<rect x="112" y="72" width="4" height="4" fill="black" />
<rect x="116" y="72" width="4" height="4" fill="black" />
<rect x="120" y="72" width="4" height="4" fill="black" />
<rect x="124" y="72" width="4" height="4" fill="black" />
<rect x="0" y="76" width="4" height="4" fill="black" />
<rect x="4" y="76" width="4" height="4" fill="black" />
<rect x="8" y="76" width="4" height="4" fill="black" />
<rect x="12" y="76" width="4" height="4" fill="black" />
<rect x="16" y="76" width="4" height="4" fill="black" />
<rect x="20" y="76" width="4" height="4" fill="black" />
<rect x="24" y="76" width="4" height="4" fill="black" />
<rect x="28" y="76" width="4" height="4" fill="black" />
<rect x="32" y="76" width="4" height="4" fill="black" />
<rect x="36" y="76" width="4" height="4" fill="black" />
<rect x="84" y="76" width="4" height="4" fill="black" />
<rect x="88" y="76" width="4" height="4" fill="black" />
<rect x="92" y="76" width="4" height="4" fill="black" />
<rect x="96" y="76" width="4" height="4" fill="black" />
<rect x="100" y="76" width="4" height="4" fill="black" />
<rect x="104" y="76" width="4" height="4" fill="black" />
<rect x="112" y="76" width="4" height="4" fill="black" />
<rect x="116" y="76" width="4" height="4" fill="black" />
<rect x="120" y="76" width="4" height="4" fill="black" />
<rect x="124" y="76" width="4" height="4" fill="black" />
<rect x="4" y="80" width="4" height="4" fill="black" />
<rect x="8" y="80" width="4" height="4" fill="black" />
<rect x="12" y="80" width="4" height="4" fill="black" />
<rect x="20" y="80" width="4" height="4" fill="black" />
<rect x="24" y="80" width="4" height="4" fill="black" />
<rect x="28" y="80" width="4" height="4" fill="black" />
<rect x="32" y="80" width="4" height="4" fill="black" />
<rect x="88" y="80" width="4" height="4" fill="black" />
<rect x="92" y="80" width="4" height="4" fill="black" />
<rect x="96" y="80" width="4" height="4" fill="black" />
<rect x="100" y="80" width="4" height="4" fill="black" />
<rect x="104" y="80" width="4" height="4" fill="black" />
<rect x="112" y="80" width="4" height="4" fill="black" />
<rect x="116" y="80" width="4" height="4" fill="black" />
<rect x="120" y="80" width="4" height="4" fill="black" />
<rect x="124" y="80" width="4" height="4" fill="black" />
<rect x="4" y="84" width="4" height="4" fill="black" />
<rect x="8" y="84" width="4" height="4" fill="black" />
<rect x="12" y="84" width="4" height="4" fill="black" />
<rect x="16" y="84" width="4" height="4" fill="black" />
<rect x="24" y="84" width="4" height="4" fill="black" />
<rect x="28" y="84" width="4" height="4" fill="black" />
<rect x="32" y="84" width="4" height="4" fill="black" />
<rect x="44" y="84" width="4" height="4" fill="black" />
<rect x="48" y="84" width="4" height="4" fill="black" />
<rect x="52" y="84" width="4" height="4" fill="black" />
<rect x="60" y="84" width="4" height="4" fill="black" />
<rect x="64" y="84" width="4" height="4" fill="black" />
<rect x="68" y="84" width="4" height="4" fill="black" />
<rect x="72" y="84" width="4" height="4" fill="black" />
<rect x="76" y="84" width="4" height="4" fill="black" />
<rect x="80" y="84" width="4" height="4" fill="black" />
<rect x="92" y="84" width="4" height="4" fill="black" />
<rect x="96" y="84" width="4" height="4" fill="black" />
<rect x="100" y="84" width="4" height="4" fill="black" />
<rect x="112" y="84" width="4" height="4" fill="black" />
<rect x="116" y="84" width="4" height="4" fill="black" />
<rect x="120" y="84" width="4" height="4" fill="black" />
<rect x="124" y="84" width="4" height="4" fill="black" />
<rect x="0" y="88" width="4" height="4" fill="black" />
<rect x="4" y="88" width="4" height="4" fill="black" />
<rect x="8" y="88" width="4" height="4" fill="black" />
<rect x="12" y="88" width="4" height="4" fill="black" />
<rect x="16" y="88" width="4" height="4" fill="black" />
<rect x="40" y="88" width="4" height="4" fill="black" />
<rect x="44" y="88" width="4" height="4" fill="black" />
<rect x="48" y="88" width="4" height="4" fill="black" />
<rect x="52" y="88" width="4" height="4" fill="black" />
<rect x="60" y="88" width="4" height="4" fill="black" />
<rect x="64" y="88" width="4" height="4" fill="black" />
<rect x="68" y="88" width="4" height="4" fill="black" />
<rect x="72" y="88" width="4" height="4" fill="black" />
<rect x="76" y="88" width="4" height="4" fill="black" />
<rect x="80" y="88" width="4" height="4" fill="black" />
<rect x="112" y="88" width="4" height="4" fill="black" />
<rect x="116" y="88" width="4" height="4" fill="black" />
<rect x="120" y="88" width="4" height="4" fill="black" />
<rect x="0" y="92" width="4" height="4" fill="black" />
<rect x="4" y="92" width="4" height="4" fill="black" />
<rect x="8" y="92" width="4" height="4" fill="black" />
<rect x="12" y="92" width="4" height="4" fill="black" />
<rect x="16" y="92" width="4" height="4" fill="black" />
<rect x="40" y="92" width="4" height="4" fill="black" />
<rect x="44" y="92" width="4" height="4" fill="black" />
<rect x="48" y="92" width="4" height="4" fill="black" />
<rect x="52" y="92" width="4" height="4" fill="black" />
<rect x="60" y="92" width="4" height="4" fill="black" />
<rect x="64" y="92" width="4" height="4" fill="black" />
<rect x="68" y="92" width="4" height="4" fill="black" />
<rect x="72" y="92" width="4" height="4" fill="black" />
<rect x="76" y="92" width="4" height="4" fill="black" />
<rect x="80" y="92" width="4" height="4" fill="black" />
<rect x="108" y="92" width="4" height="4" fill="black" />
<rect x="112" y="92" width="4" height="4" fill="black" />
<rect x="116" y="92" width="4" height="4" fill="black" />
<rect x="120" y="92" width="4" height="4" fill="black" />
<rect x="0" y="96" width="4" height="4" fill="black" />
<rect x="4" y="96" width="4" height="4" fill="black" />
<rect x="8" y="96" width="4" height="4" fill="black" />
<rect x="12" y="96" width="4" height="4" fill="black" />
<rect x="16" y="96" width="4" height="4" fill="black" />
<rect x="40" y="96" width="4" height="4" fill="black" />
<rect x="44" y="96" width="4" height="4" fill="black" />
<rect x="48" y="96" width="4" height="4" fill="black" />
<rect x="52" y="96" width="4" height="4" fill="black" />
<rect x="56" y="96" width="4" height="4" fill="black" />
<rect x="60" y="96" width="4" height="4" fill="black" />
<rect x="64" y="96" width="4" height="4" fill="black" />
<rect x="68" y="96" width="4" height="4" fill="black" />
<rect x="108" y="96" width="4" height="4" fill="black" />
<rect x="112" y="96" width="4" height="4" fill="black" />
<rect x="116" y="96" width="4" height="4" fill="black" />
<rect x="120" y="96" width="4" height="4" fill="black" />
<rect x="52" y="100" width="4" height="4" fill="black" />
<rect x="56" y="100" width="4" height="4" fill="black" />
<rect x="60" y="100" width="4" height="4" fill="black" />
<rect x="64" y="100" width="4" height="4" fill="black" />
<rect x="68" y="100" width="4" height="4" fill="black" />
<rect x="108" y="100" width="4" height="4" fill="black" />
<rect x="112" y="100" width="4" height="4" fill="black" />
<rect x="116" y="100" width="4" height="4" fill="black" />
<rect x="120" y="100" width="4" height="4" fill="black" />
<rect x="52" y="104" width="4" height="4" fill="black" />
<rect x="56" y="104" width="4" height="4" fill="black" />
<rect x="60" y="104" width="4" height="4" fill="black" />
<rect x="64" y="104" width="4" height="4" fill="black" />
<rect x="68" y="104" width="4" height="4" fill="black" />
<rect x="104" y="104" width="4" height="4" fill="black" />
<rect x="108" y="104" width="4" height="4" fill="black" />
<rect x="112" y="104" width="4" height="4" fill="black" />
<rect x="116" y="104" width="4" height="4" fill="black" />
<rect x="120" y="104" width="4" height="4" fill="black" />
<rect x="52" y="108" width="4" height="4" fill="black" />
<rect x="56" y="108" width="4" height="4" fill="black" />
<rect x="60" y="108" width="4" height="4" fill="black" />
<rect x="100" y="108" width="4" height="4" fill="black" />
<rect x="104" y="108" width="4" height="4" fill="black" />
<rect x="108" y="108" width="4" height="4" fill="black" />
<rect x="112" y="108" width="4" height="4" fill="black" />
<rect x="96" y="112" width="4" height="4" fill="black" />
<rect x="100" y="112" width="4" height="4" fill="black" />
<rect x="104" y="112" width="4" height="4" fill="black" />
<rect x="108" y="112" width="4" height="4" fill="black" />
<rect x="112" y="112" width="4" height="4" fill="black" />
<rect x="92" y="116" width="4" height="4" fill="black" />
<rect x="96" y="116" width="4" height="4" fill="black" />
<rect x="100" y="116" width="4" height="4" fill="black" />
<rect x="104" y="116" width="4" height="4" fill="black" />
<rect x="108" y="116" width="4" height="4" fill="black" />
<rect x="112" y="116" width="4" height="4" fill="black" />
<rect x="92" y="120" width="4" height="4" fill="black" />
<rect x="96" y="120" width="4" height="4" fill="black" />
<rect x="100" y="120" width="4" height="4" fill="black" />
<rect x="104" y="120" width="4" height="4" fill="black" />
<rect x="108" y="120" width="4" height="4" fill="black" />
<rect x="92" y="124" width="4" height="4" fill="black" />
<rect x="96" y="124" width="4" height="4" fill="black" />
<rect x="100" y="124" width="4" height="4" fill="black" />
<rect x="104" y="124" width="4" height="4" fill="black" />
</svg>
