<?xml version="1.0" encoding="UTF-8"?>
<svg xmlns="http://www.w3.org/2000/svg" width="128" height="128" viewBox="0 0 128 128" shape-rendering="crispEdges">
<rect width="100%" height="100%" fill="white"/>
<rect x="36" y="0" width="4" height="4" fill="black" />
<rect x="40" y="0" width="4" height="4" fill="black" />
<rect x="44" y="0" width="4" height="4" fill="black" />
<rect x="48" y="0" width="4" height="4" fill="black" />
<rect x="52" y="0" width="4" height="4" fill="black" />
<rect x="84" y="0" width="4" height="4" fill="black" />
<rect x="88" y="0" width="4" height="4" fill="black" />
<rect x="92" y="0" width="4" height="4" fill="black" />
<rect x="96" y="0" width="4" height="4" fill="black" />
<rect x="100" y="0" width="4" height="4" fill="black" />
<rect x="20" y="4" width="4" height="4" fill="black" />
<rect x="24" y="4" width="4" height="4" fill="black" />
<rect x="28" y="4" width="4" height="4" fill="black" />
<rect x="32" y="4" width="4" height="4" fill="black" />
<rect x="36" y="4" width="4" height="4" fill="black" />
<rect x="40" y="4" width="4" height="4" fill="black" />
<rect x="44" y="4" width="4" height="4" fill="black" />
<rect x="48" y="4" width="4" height="4" fill="black" />
<rect x="52" y="4" width="4" height="4" fill="black" />
<rect x="84" y="4" width="4" height="4" fill="black" />
<rect x="88" y="4" width="4" height="4" fill="black" />
<rect x="92" y="4" width="4" height="4" fill="black" />
<rect x="96" y="4" width="4" height="4" fill="black" />
<rect x="100" y="4" width="4" height="4" fill="black" />
<rect x="20" y="8" width="4" height="4" fill="black" />
<rect x="24" y="8" width="4" height="4" fill="black" />
<rect x="28" y="8" width="4" height="4" fill="black" />
<rect x="32" y="8" width="4" height="4" fill="black" />
<rect x="36" y="8" width="4" height="4" fill="black" />
<rect x="40" y="8" width="4" height="4" fill="black" />
<rect x="44" y="8" width="4" height="4" fill="black" />
<rect x="48" y="8" width="4" height="4" fill="black" />
<rect x="52" y="8" width="4" height="4" fill="black" />
<rect x="84" y="8" width="4" height="4" fill="black" />
<rect x="88" y="8" width="4" height="4" fill="black" />
<rect x="92" y="8" width="4" height="4" fill="black" />
<rect x="96" y="8" width="4" height="4" fill="black" />
<rect x="100" y="8" width="4" height="4" fill="black" />
<rect x="20" y="12" width="4" height="4" fill="black" />
<rect x="24" y="12" width="4" height="4" fill="black" />
<rect x="28" y="12" width="4" height="4" fill="black" />
<rect x="32" y="12" width="4" height="4" fill="black" />
<rect x="36" y="12" width="4" height="4" fill="black" />
<rect x="40" y="12" width="4" height="4" fill="black" />
<rect x="44" y="12" width="4" height="4" fill="black" />
<rect x="84" y="12" width="4" height="4" fill="black" />
<rect x="88" y="12" width="4" height="4" fill="black" />
<rect x="92" y="12" width="4" height="4" fill="black" />
<rect x="96" y="12" width="4" height="4" fill="black" />
<rect x="100" y="12" width="4" height="4" fill="black" />
<rect x="104" y="12" width="4" height="4" fill="black" />
<rect x="12" y="16" width="4" height="4" fill="black" />
<rect x="16" y="16" width="4" height="4" fill="black" />
<rect x="20" y="16" width="4" height="4" fill="black" />
<rect x="24" y="16" width="4" height="4" fill="black" />
<rect x="28" y="16" width="4" height="4" fill="black" />
<rect x="32" y="16" width="4" height="4" fill="black" />
<rect x="36" y="16" width="4" height="4" fill="black" />
<rect x="40" y="16" width="4" height="4" fill="black" />
<rect x="84" y="16" width="4" height="4" fill="black" />
<rect x="88" y="16" width="4" height="4" fill="black" />
<rect x="92" y="16" width="4" height="4" fill="black" />
<rect x="96" y="16" width="4" height="4" fill="black" />
<rect x="100" y="16" width="4" height="4" fill="black" />
<rect x="104" y="16" width="4" height="4" fill="black" />
<rect x="12" y="20" width="4" height="4" fill="black" />
<rect x="16" y="20" width="4" height="4" fill="black" />
<rect x="20" y="20" width="4" height="4" fill="black" />
<rect x="24" y="20" width="4" height="4" fill="black" />
<rect x="28" y="20" width="4" height="4" fill="black" />
<rect x="32" y="20" width="4" height="4" fill="black" />
<rect x="36" y="20" width="4" height="4" fill="black" />
<rect x="40" y="20" width="4" height="4" fill="black" />
<rect x="88" y="20" width="4" height="4" fill="black" />
<rect x="92" y="20" width="4" height="4" fill="black" />
<rect x="96" y="20" width="4" height="4" fill="black" />
<rect x="100" y="20" width="4" height="4" fill="black" />
<rect x="104" y="20" width="4" height="4" fill="black" />
<rect x="12" y="24" width="4" height="4" fill="black" />
<rect x="16" y="24" width="4" height="4" fill="black" />
<rect x="20" y="24" width="4" height="4" fill="black" />
<rect x="24" y="24" width="4" height="4" fill="black" />
<rect x="28" y="24" width="4" height="4" fill="black" />
<rect x="32" y="24" width="4" height="4" fill="black" />
<rect x="36" y="24" width="4" height="4" fill="black" />
<rect x="40" y="24" width="4" height="4" fill="black" />
<rect x="12" y="28" width="4" height="4" fill="black" />
<rect x="16" y="28" width="4" height="4" fill="black" />
<rect x="20" y="28" width="4" height="4" fill="black" />
<rect x="60" y="28" width="4" height="4" fill="black" />
<rect x="64" y="28" width="4" height="4" fill="black" />
<rect x="68" y="28" width="4" height="4" fill="black" />
<rect x="72" y="28" width="4" height="4" fill="black" />
<rect x="108" y="28" width="4" height="4" fill="black" />
<rect x="112" y="28" width="4" height="4" fill="black" />
<rect x="116" y="28" width="4" height="4" fill="black" />
<rect x="60" y="32" width="4" height="4" fill="black" />
<rect x="64" y="32" width="4" height="4" fill="black" />
<rect x="68" y="32" width="4" height="4" fill="black" />
<rect x="72" y="32" width="4" height="4" fill="black" />
<rect x="108" y="32" width="4" height="4" fill="black" />
<rect x="112" y="32" width="4" height="4" fill="black" />
<rect x="116" y="32" width="4" height="4" fill="black" />
<rect x="60" y="36" width="4" height="4" fill="black" />
<rect x="64" y="36" width="4" height="4" fill="black" />
<rect x="68" y="36" width="4" height="4" fill="black" />
<rect x="72" y="36" width="4" height="4" fill="black" />
<rect x="108" y="36" width="4" height="4" fill="black" />
<rect x="112" y="36" width="4" height="4" fill="black" />
<rect x="116" y="36" width="4" height="4" fill="black" />
<rect x="0" y="40" width="4" height="4" fill="black" />
<rect x="4" y="40" width="4" height="4" fill="black" />
<rect x="8" y="40" width="4" height="4" fill="black" />
<rect x="0" y="44" width="4" height="4" fill="black" />
<rect x="4" y="44" width="4" height="4" fill="black" />
<rect x="8" y="44" width="4" height="4" fill="black" />
<rect x="0" y="48" width="4" height="4" fill="black" />
<rect x="4" y="48" width="4" height="4" fill="black" />
<rect x="8" y="48" width="4" height="4" fill="black" />
<rect x="0" y="52" width="4" height="4" fill="black" />
<rect x="4" y="52" width="4" height="4" fill="black" />
<rect x="8" y="52" width="4" height="4" fill="black" />
<rect x="52" y="52" width="4" height="4" fill="black" />
<rect x="56" y="52" width="4" height="4" fill="black" />
<rect x="60" y="52" width="4" height="4" fill="black" />
<rect x="0" y="56" width="4" height="4" fill="black" />
<rect x="4" y="56" width="4" height="4" fill="black" />
<rect x="8" y="56" width="4" height="4" fill="black" />
<rect x="48" y="56" width="4" height="4" fill="black" />
<rect x="52" y="56" width="4" height="4" fill="black" />
<rect x="56" y="56" width="4" height="4" fill="black" />
<rect x="60" y="56" width="4" height="4" fill="black" />
<rect x="112" y="56" width="4" height="4" fill="black" />
<rect x="116" y="56" width="4" height="4" fill="black" />
<rect x="120" y="56" width="4" height="4" fill="black" />
<rect x="124" y="56" width="4" height="4" fill="black" />
<rect x="0" y="60" width="4" height="4" fill="black" />
<rect x="4" y="60" width="4" height="4" fill="black" />
<rect x="8" y="60" width="4" height="4" fill="black" />
<rect x="48" y="60" width="4" height="4" fill="black" />
<rect x="52" y="60" width="4" height="4" fill="black" />
<rect x="56" y="60" width="4" height="4" fill="black" />
<rect x="60" y="60" width="4" height="4" fill="black" />
<rect x="112" y="60" width="4" height="4" fill="black" />
<rect x="116" y="60" width="4" height="4" fill="black" />
<rect x="120" y="60" width="4" height="4" fill="black" />
<rect x="124" y="60" width="4" height="4" fill="black" />
<rect x="48" y="64" width="4" height="4" fill="black" />
<rect x="52" y="64" width="4" height="4" fill="black" />
<rect x="56" y="64" width="4" height="4" fill="black" />
<rect x="60" y="64" width="4" height="4" fill="black" />
<rect x="112" y="64" width="4" height="4" fill="black" />
<rect x="116" y="64" width="4" height="4" fill="black" />
<rect x="120" y="64" width="4" height="4" fill="black" />
<rect x="124" y="64" width="4" height="4" fill="black" />
<rect x="68" y="68" width="4" height="4" fill="black" />
<rect x="72" y="68" width="4" height="4" fill="black" />
<rect x="76" y="68" width="4" height="4" fill="black" />
<rect x="80" y="68" width="4" height="4" fill="black" />
<rect x="116" y="68" width="4" height="4" fill="black" />
<rect x="120" y="68" width="4" height="4" fill="black" />
<rect x="124" y="68" width="4" height="4" fill="black" />
<rect x="72" y="72" width="4" height="4" fill="black" />
<rect x="76" y="72" width="4" height="4" fill="black" />
<rect x="80" y="72" width="4" height="4" fill="black" />
<rect x="96" y="72" width="4" height="4" fill="black" />
<rect x="100" y="72" width="4" height="4" fill="black" />
<rect x="104" y="72" width="4" height="4" fill="black" />
<rect x="116" y="72" width="4" height="4" fill="black" />
<rect x="120" y="72" width="4" height="4" fill="black" />
<rect x="124" y="72" width="4" height="4" fill="black" />
<rect x="72" y="76" width="4" height="4" fill="black" />
<rect x="76" y="76" width="4" height="4" fill="black" />
<rect x="80" y="76" width="4" height="4" fill="black" />
<rect x="96" y="76" width="4" height="4" fill="black" />
<rect x="100" y="76" width="4" height="4" fill="black" />
<rect x="104" y="76" width="4" height="4" fill="black" />
<rect x="108" y="76" width="4" height="4" fill="black" />
<rect x="112" y="76" width="4" height="4" fill="black" />
<rect x="116" y="76" width="4" height="4" fill="black" />
<rect x="120" y="76" width="4" height="4" fill="black" />
<rect x="124" y="76" width="4" height="4" fill="black" />
<rect x="96" y="80" width="4" height="4" fill="black" />
<rect x="100" y="80" width="4" height="4" fill="black" />
<rect x="104" y="80" width="4" height="4" fill="black" />
<rect x="108" y="80" width="4" height="4" fill="black" />
<rect x="112" y="80" width="4" height="4" fill="black" />
<rect x="116" y="80" width="4" height="4" fill="black" />
<rect x="120" y="80" width="4" height="4" fill="black" />
<rect x="124" y="80" width="4" height="4" fill="black" />
<rect x="32" y="84" width="4" height="4" fill="black" />
<rect x="36" y="84" width="4" height="4" fill="black" />
<rect x="40" y="84" width="4" height="4" fill="black" />
<rect x="96" y="84" width="4" height="4" fill="black" />
<rect x="100" y="84" width="4" height="4" fill="black" />
<rect x="104" y="84" width="4" height="4" fill="black" />
<rect x="108" y="84" width="4" height="4" fill="black" />
<rect x="112" y="84" width="4" height="4" fill="black" />
<rect x="116" y="84" width="4" height="4" fill="black" />
<rect x="24" y="88" width="4" height="4" fill="black" />
<rect x="28" y="88" width="4" height="4" fill="black" />
<rect x="32" y="88" width="4" height="4" fill="black" />
<rect x="36" y="88" width="4" height="4" fill="black" />
<rect x="40" y="88" width="4" height="4" fill="black" />
<rect x="96" y="88" width="4" height="4" fill="black" />
<rect x="100" y="88" width="4" height="4" fill="black" />
<rect x="104" y="88" width="4" height="4" fill="black" />
<rect x="108" y="88" width="4" height="4" fill="black" />
<rect x="112" y="88" width="4" height="4" fill="black" />
<rect x="116" y="88" width="4" height="4" fill="black" />
<rect x="24" y="92" width="4" height="4" fill="black" />
<rect x="28" y="92" width="4" height="4" fill="black" />
<rect x="32" y="92" width="4" height="4" fill="black" />
<rect x="36" y="92" width="4" height="4" fill="black" />
<rect x="40" y="92" width="4" height="4" fill="black" />
<rect x="100" y="92" width="4" height="4" fill="black" />
<rect x="104" y="92" width="4" height="4" fill="black" />
<rect x="108" y="92" width="4" height="4" fill="black" />
<rect x="112" y="92" width="4" height="4" fill="black" />
<rect x="116" y="92" width="4" height="4" fill="black" />
<rect x="20" y="96" width="4" height="4" fill="black" />
<rect x="24" y="96" width="4" height="4" fill="black" />
<rect x="28" y="96" width="4" height="4" fill="black" />
<rect x="32" y="96" width="4" height="4" fill="black" />
<rect x="36" y="96" width="4" height="4" fill="black" />
<rect x="100" y="96" width="4" height="4" fill="black" />
<rect x="104" y="96" width="4" height="4" fill="black" />
<rect x="108" y="96" width="4" height="4" fill="black" />
<rect x="112" y="96" width="4" height="4" fill="black" />
<rect x="20" y="100" width="4" height="4" fill="black" />
<rect x="24" y="100" width="4" height="4" fill="black" />
<rect x="28" y="100" width="4" height="4" fill="black" />
<rect x="32" y="100" width="4" height="4" fill="black" />
<rect x="36" y="100" width="4" height="4" fill="black" />
<rect x="96" y="100" width="4" height="4" fill="black" />
<rect x="100" y="100" width="4" height="4" fill="black" />
<rect x="104" y="100" width="4" height="4" fill="black" />
<rect x="108" y="100" width="4" height="4" fill="black" />
<rect x="112" y="100" width="4" height="4" fill="black" />
<rect x="116" y="100" width="4" height="4" fill="black" />
<rect x="20" y="104" width="4" height="4" fill="black" />
<rect x="24" y="104" width="4" height="4" fill="black" />
<rect x="28" y="104" width="4" height="4" fill="black" />
<rect x="96" y="104" width="4" height="4" fill="black" />
<rect x="100" y="104" width="4" height="4" fill="black" />
<rect x="104" y="104" width="4" height="4" fill="black" />
<rect x="108" y="104" width="4" height="4" fill="black" />
<rect x="112" y="104" width="4" height="4" fill="black" />
<rect x="116" y="104" width="4" height="4" fill="black" />
<rect x="28" y="108" width="4" height="4" fill="black" />
<rect x="32" y="108" width="4" height="4" fill="black" />
<rect x="36" y="108" width="4" height="4" fill="black" />
<rect x="40" y="108" width="4" height="4" fill="black" />
<rect x="44" y="108" width="4" height="4" fill="black" />
<rect x="92" y="108" width="4" height="4" fill="black" />
<rect x="96" y="108" width="4" height="4" fill="black" />
<rect x="100" y="108" width="4" height="4" fill="black" />
<rect x="104" y="108" width="4" height="4" fill="black" />
<rect x="108" y="108" width="4" height="4" fill="black" />
<rect x="112" y="108" width="4" height="4" fill="black" />
<rect x="116" y="108" width="4" height="4" fill="black" />
<rect x="28" y="112" width="4" height="4" fill="black" />
<rect x="32" y="112" width="4" height="4" fill="black" />
<rect x="36" y="112" width="4" height="4" fill="black" />
<rect x="40" y="112" width="4" height="4" fill="black" />
<rect x="44" y="112" width="4" height="4" fill="black" />
<rect x="48" y="112" width="4" height="4" fill="black" />
<rect x="52" y="112" width="4" height="4" fill="black" />
<rect x="56" y="112" width="4" height="4" fill="black" />
<rect x="92" y="112" width="4" height="4" fill="black" />
<rect x="96" y="112" width="4" height="4" fill="black" />
<rect x="100" y="112" width="4" height="4" fill="black" />
<rect x="104" y="112" width="4" height="4" fill="black" />
<rect x="28" y="116" width="4" height="4" fill="black" />
<rect x="32" y="116" width="4" height="4" fill="black" />
<rect x="36" y="116" width="4" height="4" fill="black" />
<rect x="40" y="116" width="4" height="4" fill="black" />
<rect x="44" y="116" width="4" height="4" fill="black" />
<rect x="48" y="116" width="4" height="4" fill="black" />
<rect x="52" y="116" width="4" height="4" fill="black" />
<rect x="56" y="116" width="4" height="4" fill="black" />
<rect x="92" y="116" width="4" height="4" fill="black" />
<rect x="96" y="116" width="4" height="4" fill="black" />
<rect x="100" y="116" width="4" height="4" fill="black" />
<rect x="28" y="120" width="4" height="4" fill="black" />
<rect x="32" y="120" width="4" height="4" fill="black" />
<rect x="36" y="120" width="4" height="4" fill="black" />
<rect x="40" y="120" width="4" height="4" fill="black" />
<rect x="44" y="120" width="4" height="4" fill="black" />
<rect x="48" y="120" width="4" height="4" fill="black" />
<rect x="52" y="120" width="4" height="4" fill="black" />
<rect x="56" y="120" width="4" height="4" fill="black" />
<rect x="36" y="124" width="4" height="4" fill="black" />
<rect x="40" y="124" width="4" height="4" fill="black" />
<rect x="44" y="124" width="4" height="4" fill="black" />
<rect x="48" y="124" width="4" height="4" fill="black" />
<rect x="52" y="124" width="4" height="4" fill="black" />
</svg>
