<?xml version="1.0" encoding="UTF-8"?>
<svg xmlns="http://www.w3.org/2000/svg" width="128" height="128" viewBox="0 0 128 128" shape-rendering="crispEdges">
<rect width="100%" height="100%" fill="white"/>
<rect x="28" y="0" width="4" height="4" fill="black" />
<rect x="32" y="0" width="4" height="4" fill="black" />
<rect x="36" y="0" width="4" height="4" fill="black" />
<rect x="40" y="0" width="4" height="4" fill="black" />
<rect x="68" y="0" width="4" height="4" fill="black" />
<rect x="72" y="0" width="4" height="4" fill="black" />
<rect x="76" y="0" width="4" height="4" fill="black" />
<rect x="80" y="0" width="4" height="4" fill="black" />
<rect x="28" y="4" width="4" height="4" fill="black" />
<rect x="32" y="4" width="4" height="4" fill="black" />
<rect x="36" y="4" width="4" height="4" fill="black" />
<rect x="40" y="4" width="4" height="4" fill="black" />
<rect x="68" y="4" width="4" height="4" fill="black" />
<rect x="72" y="4" width="4" height="4" fill="black" />
<rect x="76" y="4" width="4" height="4" fill="black" />
<rect x="80" y="4" width="4" height="4" fill="black" />
<rect x="84" y="4" width="4" height="4" fill="black" />
<rect x="88" y="4" width="4" height="4" fill="black" />
<rect x="92" y="4" width="4" height="4" fill="black" />
<rect x="16" y="8" width="4" height="4" fill="black" />
<rect x="20" y="8" width="4" height="4" fill="black" />
<rect x="24" y="8" width="4" height="4" fill="black" />
<rect x="28" y="8" width="4" height="4" fill="black" />
<rect x="32" y="8" width="4" height="4" fill="black" />
<rect x="36" y="8" width="4" height="4" fill="black" />
<rect x="40" y="8" width="4" height="4" fill="black" />
<rect x="68" y="8" width="4" height="4" fill="black" />
<rect x="72" y="8" width="4" height="4" fill="black" />
<rect x="76" y="8" width="4" height="4" fill="black" />
<rect x="80" y="8" width="4" height="4" fill="black" />
<rect x="84" y="8" width="4" height="4" fill="black" />
<rect x="88" y="8" width="4" height="4" fill="black" />
<rect x="92" y="8" width="4" height="4" fill="black" />
<rect x="16" y="12" width="4" height="4" fill="black" />
<rect x="20" y="12" width="4" height="4" fill="black" />
<rect x="24" y="12" width="4" height="4" fill="black" />
<rect x="28" y="12" width="4" height="4" fill="black" />
<rect x="32" y="12" width="4" height="4" fill="black" />
<rect x="44" y="12" width="4" height="4" fill="black" />
<rect x="48" y="12" width="4" height="4" fill="black" />
<rect x="52" y="12" width="4" height="4" fill="black" />
<rect x="56" y="12" width="4" height="4" fill="black" />
<rect x="84" y="12" width="4" height="4" fill="black" />
<rect x="88" y="12" width="4" height="4" fill="black" />
<rect x="92" y="12" width="4" height="4" fill="black" />
<rect x="100" y="12" width="4" height="4" fill="black" />
<rect x="104" y="12" width="4" height="4" fill="black" />
<rect x="108" y="12" width="4" height="4" fill="black" />
<rect x="16" y="16" width="4" height="4" fill="black" />
<rect x="20" y="16" width="4" height="4" fill="black" />
<rect x="24" y="16" width="4" height="4" fill="black" />
<rect x="28" y="16" width="4" height="4" fill="black" />
<rect x="32" y="16" width="4" height="4" fill="black" />
<rect x="44" y="16" width="4" height="4" fill="black" />
<rect x="48" y="16" width="4" height="4" fill="black" />
<rect x="52" y="16" width="4" height="4" fill="black" />
<rect x="56" y="16" width="4" height="4" fill="black" />
<rect x="84" y="16" width="4" height="4" fill="black" />
<rect x="88" y="16" width="4" height="4" fill="black" />
<rect x="92" y="16" width="4" height="4" fill="black" />
<rect x="100" y="16" width="4" height="4" fill="black" />
<rect x="104" y="16" width="4" height="4" fill="black" />
<rect x="108" y="16" width="4" height="4" fill="black" />
<rect x="16" y="20" width="4" height="4" fill="black" />
<rect x="20" y="20" width="4" height="4" fill="black" />
<rect x="24" y="20" width="4" height="4" fill="black" />
<rect x="28" y="20" width="4" height="4" fill="black" />
<rect x="32" y="20" width="4" height="4" fill="black" />
<rect x="44" y="20" width="4" height="4" fill="black" />
<rect x="48" y="20" width="4" height="4" fill="black" />
<rect x="52" y="20" width="4" height="4" fill="black" />
<rect x="56" y="20" width="4" height="4" fill="black" />
<rect x="60" y="20" width="4" height="4" fill="black" />
<rect x="64" y="20" width="4" height="4" fill="black" />
<rect x="68" y="20" width="4" height="4" fill="black" />
<rect x="72" y="20" width="4" height="4" fill="black" />
<rect x="100" y="20" width="4" height="4" fill="black" />
<rect x="104" y="20" width="4" height="4" fill="black" />
<rect x="108" y="20" width="4" height="4" fill="black" />
<rect x="20" y="24" width="4" height="4" fill="black" />
<rect x="24" y="24" width="4" height="4" fill="black" />
<rect x="28" y="24" width="4" height="4" fill="black" />
<rect x="48" y="24" width="4" height="4" fill="black" />
<rect x="52" y="24" width="4" height="4" fill="black" />
<rect x="56" y="24" width="4" height="4" fill="black" />
<rect x="60" y="24" width="4" height="4" fill="black" />
<rect x="64" y="24" width="4" height="4" fill="black" />
<rect x="68" y="24" width="4" height="4" fill="black" />
<rect x="72" y="24" width="4" height="4" fill="black" />
<rect x="4" y="28" width="4" height="4" fill="black" />
<rect x="8" y="28" width="4" height="4" fill="black" />
<rect x="12" y="28" width="4" height="4" fill="black" />
<rect x="48" y="28" width="4" height="4" fill="black" />
<rect x="52" y="28" width="4" height="4" fill="black" />
<rect x="56" y="28" width="4" height="4" fill="black" />
<rect x="60" y="28" width="4" height="4" fill="black" />
<rect x="64" y="28" width="4" height="4" fill="black" />
<rect x="68" y="28" width="4" height="4" fill="black" />
<rect x="72" y="28" width="4" height="4" fill="black" />
<rect x="0" y="32" width="4" height="4" fill="black" />
<rect x="4" y="32" width="4" height="4" fill="black" />
<rect x="8" y="32" width="4" height="4" fill="black" />
<rect x="12" y="32" width="4" height="4" fill="black" />
<rect x="48" y="32" width="4" height="4" fill="black" />
<rect x="52" y="32" width="4" height="4" fill="black" />
<rect x="56" y="32" width="4" height="4" fill="black" />
<rect x="60" y="32" width="4" height="4" fill="black" />
<rect x="64" y="32" width="4" height="4" fill="black" />
<rect x="68" y="32" width="4" height="4" fill="black" />
<rect x="72" y="32" width="4" height="4" fill="black" />
<rect x="0" y="36" width="4" height="4" fill="black" />
<rect x="4" y="36" width="4" height="4" fill="black" />
<rect x="8" y="36" width="4" height="4" fill="black" />
<rect x="12" y="36" width="4" height="4" fill="black" />
<rect x="24" y="36" width="4" height="4" fill="black" />
<rect x="28" y="36" width="4" height="4" fill="black" />
<rect x="32" y="36" width="4" height="4" fill="black" />
<rect x="60" y="36" width="4" height="4" fill="black" />
<rect x="64" y="36" width="4" height="4" fill="black" />
<rect x="68" y="36" width="4" height="4" fill="black" />
<rect x="72" y="36" width="4" height="4" fill="black" />
<rect x="0" y="40" width="4" height="4" fill="black" />
<rect x="4" y="40" width="4" height="4" fill="black" />
<rect x="8" y="40" width="4" height="4" fill="black" />
<rect x="12" y="40" width="4" height="4" fill="black" />
<rect x="16" y="40" width="4" height="4" fill="black" />
<rect x="20" y="40" width="4" height="4" fill="black" />
<rect x="24" y="40" width="4" height="4" fill="black" />
<rect x="28" y="40" width="4" height="4" fill="black" />
<rect x="32" y="40" width="4" height="4" fill="black" />
<rect x="36" y="40" width="4" height="4" fill="black" />
<rect x="40" y="40" width="4" height="4" fill="black" />
<rect x="44" y="40" width="4" height="4" fill="black" />
<rect x="0" y="44" width="4" height="4" fill="black" />
<rect x="4" y="44" width="4" height="4" fill="black" />
<rect x="8" y="44" width="4" height="4" fill="black" />
<rect x="12" y="44" width="4" height="4" fill="black" />
<rect x="16" y="44" width="4" height="4" fill="black" />
<rect x="20" y="44" width="4" height="4" fill="black" />
<rect x="24" y="44" width="4" height="4" fill="black" />
<rect x="28" y="44" width="4" height="4" fill="black" />
<rect x="32" y="44" width="4" height="4" fill="black" />
<rect x="36" y="44" width="4" height="4" fill="black" />
<rect x="40" y="44" width="4" height="4" fill="black" />
<rect x="44" y="44" width="4" height="4" fill="black" />
<rect x="0" y="48" width="4" height="4" fill="black" />
<rect x="4" y="48" width="4" height="4" fill="black" />
<rect x="8" y="48" width="4" height="4" fill="black" />
<rect x="12" y="48" width="4" height="4" fill="black" />
<rect x="16" y="48" width="4" height="4" fill="black" />
<rect x="20" y="48" width="4" height="4" fill="black" />
<rect x="24" y="48" width="4" height="4" fill="black" />
<rect x="28" y="48" width="4" height="4" fill="black" />
<rect x="32" y="48" width="4" height="4" fill="black" />
<rect x="36" y="48" width="4" height="4" fill="black" />
<rect x="40" y="48" width="4" height="4" fill="black" />
<rect x="44" y="48" width="4" height="4" fill="black" />
<rect x="100" y="48" width="4" height="4" fill="black" />
<rect x="104" y="48" width="4" height="4" fill="black" />
<rect x="108" y="48" width="4" height="4" fill="black" />
<rect x="112" y="48" width="4" height="4" fill="black" />
<rect x="0" y="52" width="4" height="4" fill="black" />
<rect x="4" y="52" width="4" height="4" fill="black" />
<rect x="8" y="52" width="4" height="4" fill="black" />
<rect x="12" y="52" width="4" height="4" fill="black" />
<rect x="16" y="52" width="4" height="4" fill="black" />
<rect x="20" y="52" width="4" height="4" fill="black" />
<rect x="24" y="52" width="4" height="4" fill="black" />
<rect x="28" y="52" width="4" height="4" fill="black" />
<rect x="32" y="52" width="4" height="4" fill="black" />
<rect x="36" y="52" width="4" height="4" fill="black" />
<rect x="40" y="52" width="4" height="4" fill="black" />
<rect x="96" y="52" width="4" height="4" fill="black" />
<rect x="100" y="52" width="4" height="4" fill="black" />
<rect x="104" y="52" width="4" height="4" fill="black" />
<rect x="108" y="52" width="4" height="4" fill="black" />
<rect x="112" y="52" width="4" height="4" fill="black" />
<rect x="8" y="56" width="4" height="4" fill="black" />
<rect x="12" y="56" width="4" height="4" fill="black" />
<rect x="16" y="56" width="4" height="4" fill="black" />
<rect x="20" y="56" width="4" height="4" fill="black" />
<rect x="24" y="56" width="4" height="4" fill="black" />
<rect x="28" y="56" width="4" height="4" fill="black" />
<rect x="32" y="56" width="4" height="4" fill="black" />
<rect x="96" y="56" width="4" height="4" fill="black" />
<rect x="100" y="56" width="4" height="4" fill="black" />
<rect x="104" y="56" width="4" height="4" fill="black" />
<rect x="108" y="56" width="4" height="4" fill="black" />
<rect x="112" y="56" width="4" height="4" fill="black" />
<rect x="8" y="60" width="4" height="4" fill="black" />
<rect x="12" y="60" width="4" height="4" fill="black" />
<rect x="16" y="60" width="4" height="4" fill="black" />
<rect x="20" y="60" width="4" height="4" fill="black" />
<rect x="24" y="60" width="4" height="4" fill="black" />
<rect x="28" y="60" width="4" height="4" fill="black" />
<rect x="32" y="60" width="4" height="4" fill="black" />
<rect x="88" y="60" width="4" height="4" fill="black" />
<rect x="92" y="60" width="4" height="4" fill="black" />
<rect x="96" y="60" width="4" height="4" fill="black" />
<rect x="100" y="60" width="4" height="4" fill="black" />
<rect x="104" y="60" width="4" height="4" fill="black" />
<rect x="8" y="64" width="4" height="4" fill="black" />
<rect x="12" y="64" width="4" height="4" fill="black" />
<rect x="16" y="64" width="4" height="4" fill="black" />
<rect x="24" y="64" width="4" height="4" fill="black" />
<rect x="28" y="64" width="4" height="4" fill="black" />
<rect x="32" y="64" width="4" height="4" fill="black" />
<rect x="88" y="64" width="4" height="4" fill="black" />
<rect x="92" y="64" width="4" height="4" fill="black" />
<rect x="96" y="64" width="4" height="4" fill="black" />
<rect x="8" y="68" width="4" height="4" fill="black" />
<rect x="12" y="68" width="4" height="4" fill="black" />
<rect x="16" y="68" width="4" height="4" fill="black" />
<rect x="24" y="68" width="4" height="4" fill="black" />
<rect x="28" y="68" width="4" height="4" fill="black" />
<rect x="32" y="68" width="4" height="4" fill="black" />
<rect x="88" y="68" width="4" height="4" fill="black" />
<rect x="92" y="68" width="4" height="4" fill="black" />
<rect x="96" y="68" width="4" height="4" fill="black" />
<rect x="116" y="68" width="4" height="4" fill="black" />
<rect x="120" y="68" width="4" height="4" fill="black" />
<rect x="124" y="68" width="4" height="4" fill="black" />
<rect x="24" y="72" width="4" height="4" fill="black" />
<rect x="28" y="72" width="4" height="4" fill="black" />
<rect x="32" y="72" width="4" height="4" fill="black" />
<rect x="116" y="72" width="4" height="4" fill="black" />
<rect x="120" y="72" width="4" height="4" fill="black" />
<rect x="124" y="72" width="4" height="4" fill="black" />
<rect x="44" y="76" width="4" height="4" fill="black" />
<rect x="48" y="76" width="4" height="4" fill="black" />
<rect x="52" y="76" width="4" height="4" fill="black" />
<rect x="116" y="76" width="4" height="4" fill="black" />
<rect x="120" y="76" width="4" height="4" fill="black" />
<rect x="124" y="76" width="4" height="4" fill="black" />
<rect x="44" y="80" width="4" height="4" fill="black" />
<rect x="48" y="80" width="4" height="4" fill="black" />
<rect x="52" y="80" width="4" height="4" fill="black" />
<rect x="56" y="80" width="4" height="4" fill="black" />
<rect x="76" y="80" width="4" height="4" fill="black" />
<rect x="80" y="80" width="4" height="4" fill="black" />
<rect x="84" y="80" width="4" height="4" fill="black" />
<rect x="88" y="80" width="4" height="4" fill="black" />
<rect x="112" y="80" width="4" height="4" fill="black" />
<rect x="116" y="80" width="4" height="4" fill="black" />
<rect x="120" y="80" width="4" height="4" fill="black" />
<rect x="124" y="80" width="4" height="4" fill="black" />
<rect x="24" y="84" width="4" height="4" fill="black" />
<rect x="28" y="84" width="4" height="4" fill="black" />
<rect x="32" y="84" width="4" height="4" fill="black" />
<rect x="40" y="84" width="4" height="4" fill="black" />
<rect x="44" y="84" width="4" height="4" fill="black" />
<rect x="48" y="84" width="4" height="4" fill="black" />
<rect x="52" y="84" width="4" height="4" fill="black" />
<rect x="56" y="84" width="4" height="4" fill="black" />
<rect x="76" y="84" width="4" height="4" fill="black" />
<rect x="80" y="84" width="4" height="4" fill="black" />
<rect x="84" y="84" width="4" height="4" fill="black" />
<rect x="88" y="84" width="4" height="4" fill="black" />
<rect x="92" y="84" width="4" height="4" fill="black" />
<rect x="96" y="84" width="4" height="4" fill="black" />
<rect x="100" y="84" width="4" height="4" fill="black" />
<rect x="112" y="84" width="4" height="4" fill="black" />
<rect x="116" y="84" width="4" height="4" fill="black" />
<rect x="120" y="84" width="4" height="4" fill="black" />
<rect x="124" y="84" width="4" height="4" fill="black" />
<rect x="24" y="88" width="4" height="4" fill="black" />
<rect x="28" y="88" width="4" height="4" fill="black" />
<rect x="32" y="88" width="4" height="4" fill="black" />
<rect x="40" y="88" width="4" height="4" fill="black" />
<rect x="44" y="88" width="4" height="4" fill="black" />
<rect x="48" y="88" width="4" height="4" fill="black" />
<rect x="52" y="88" width="4" height="4" fill="black" />
<rect x="56" y="88" width="4" height="4" fill="black" />
<rect x="72" y="88" width="4" height="4" fill="black" />
<rect x="76" y="88" width="4" height="4" fill="black" />
<rect x="80" y="88" width="4" height="4" fill="black" />
<rect x="84" y="88" width="4" height="4" fill="black" />
<rect x="88" y="88" width="4" height="4" fill="black" />
<rect x="92" y="88" width="4" height="4" fill="black" />
<rect x="96" y="88" width="4" height="4" fill="black" />
<rect x="100" y="88" width="4" height="4" fill="black" />
<rect x="112" y="88" width="4" height="4" fill="black" />
<rect x="116" y="88" width="4" height="4" fill="black" />
<rect x="120" y="88" width="4" height="4" fill="black" />
<rect x="124" y="88" width="4" height="4" fill="black" />
<rect x="24" y="92" width="4" height="4" fill="black" />
<rect x="28" y="92" width="4" height="4" fill="black" />
<rect x="32" y="92" width="4" height="4" fill="black" />
<rect x="36" y="92" width="4" height="4" fill="black" />
<rect x="40" y="92" width="4" height="4" fill="black" />
<rect x="44" y="92" width="4" height="4" fill="black" />
<rect x="48" y="92" width="4" height="4" fill="black" />
<rect x="52" y="92" width="4" height="4" fill="black" />
<rect x="72" y="92" width="4" height="4" fill="black" />
<rect x="76" y="92" width="4" height="4" fill="black" />
<rect x="80" y="92" width="4" height="4" fill="black" />
<rect x="84" y="92" width="4" height="4" fill="black" />
<rect x="88" y="92" width="4" height="4" fill="black" />
<rect x="92" y="92" width="4" height="4" fill="black" />
<rect x="96" y="92" width="4" height="4" fill="black" />
<rect x="100" y="92" width="4" height="4" fill="black" />
<rect x="112" y="92" width="4" height="4" fill="black" />
<rect x="116" y="92" width="4" height="4" fill="black" />
<rect x="120" y="92" width="4" height="4" fill="black" />
<rect x="124" y="92" width="4" height="4" fill="black" />
<rect x="32" y="96" width="4" height="4" fill="black" />
<rect x="36" y="96" width="4" height="4" fill="black" />
<rect x="40" y="96" width="4" height="4" fill="black" />
<rect x="44" y="96" width="4" height="4" fill="black" />
<rect x="48" y="96" width="4" height="4" fill="black" />
<rect x="52" y="96" width="4" height="4" fill="black" />
<rect x="72" y="96" width="4" height="4" fill="black" />
<rect x="76" y="96" width="4" height="4" fill="black" />
<rect x="80" y="96" width="4" height="4" fill="black" />
<rect x="84" y="96" width="4" height="4" fill="black" />
<rect x="88" y="96" width="4" height="4" fill="black" />
<rect x="92" y="96" width="4" height="4" fill="black" />
<rect x="96" y="96" width="4" height="4" fill="black" />
<rect x="100" y="96" width="4" height="4" fill="black" />
<rect x="104" y="96" width="4" height="4" fill="black" />
<rect x="108" y="96" width="4" height="4" fill="black" />
<rect x="112" y="96" width="4" height="4" fill="black" />
<rect x="32" y="100" width="4" height="4" fill="black" />
<rect x="36" y="100" width="4" height="4" fill="black" />
<rect x="40" y="100" width="4" height="4" fill="black" />
<rect x="72" y="100" width="4" height="4" fill="black" />
<rect x="76" y="100" width="4" height="4" fill="black" />
<rect x="80" y="100" width="4" height="4" fill="black" />
<rect x="84" y="100" width="4" height="4" fill="black" />
<rect x="100" y="100" width="4" height="4" fill="black" />
<rect x="104" y="100" width="4" height="4" fill="black" />
<rect x="108" y="100" width="4" height="4" fill="black" />
<rect x="112" y="100" width="4" height="4" fill="black" />
<rect x="32" y="104" width="4" height="4" fill="black" />
<rect x="36" y="104" width="4" height="4" fill="black" />
<rect x="40" y="104" width="4" height="4" fill="black" />
<rect x="72" y="104" width="4" height="4" fill="black" />
<rect x="76" y="104" width="4" height="4" fill="black" />
<rect x="80" y="104" width="4" height="4" fill="black" />
<rect x="84" y="104" width="4" height="4" fill="black" />
<rect x="96" y="104" width="4" height="4" fill="black" />
<rect x="100" y="104" width="4" height="4" fill="black" />
<rect x="104" y="104" width="4" height="4" fill="black" />
<rect x="108" y="104" width="4" height="4" fill="black" />
<rect x="112" y="104" width="4" height="4" fill="black" />
<rect x="72" y="108" width="4" height="4" fill="black" />
<rect x="76" y="108" width="4" height="4" fill="black" />
<rect x="80" y="108" width="4" height="4" fill="black" />
<rect x="84" y="108" width="4" height="4" fill="black" />
<rect x="88" y="108" width="4" height="4" fill="black" />
<rect x="92" y="108" width="4" height="4" fill="black" />
<rect x="96" y="108" width="4" height="4" fill="black" />
<rect x="100" y="108" width="4" height="4" fill="black" />
<rect x="104" y="108" width="4" height="4" fill="black" />
<rect x="108" y="108" width="4" height="4" fill="black" />
<rect x="112" y="108" width="4" height="4" fill="black" />
<rect x="84" y="112" width="4" height="4" fill="black" />
<rect x="88" y="112" width="4" height="4" fill="black" />
<rect x="92" y="112" width="4" height="4" fill="black" />
<rect x="96" y="112" width="4" height="4" fill="black" />
<rect x="100" y="112" width="4" height="4" fill="black" />
<rect x="104" y="112" width="4" height="4" fill="black" />
<rect x="108" y="112" width="4" height="4" fill="black" />
<rect x="56" y="116" width="4" height="4" fill="black" />
<rect x="60" y="116" width="4" height="4" fill="black" />
<rect x="64" y="116" width="4" height="4" fill="black" />
<rect x="68" y="116" width="4" height="4" fill="black" />
<rect x="72" y="116" width="4" height="4" fill="black" />
<rect x="76" y="116" width="4" height="4" fill="black" />
<rect x="84" y="116" width="4" height="4" fill="black" />
<rect x="88" y="116" width="4" height="4" fill="black" />
<rect x="92" y="116" width="4" height="4" fill="black" />
<rect x="96" y="116" width="4" height="4" fill="black" />
<rect x="100" y="116" width="4" height="4" fill="black" />
<rect x="104" y="116" width="4" height="4" fill="black" />
<rect x="108" y="116" width="4" height="4" fill="black" />
<rect x="56" y="120" width="4" height="4" fill="black" />
<rect x="60" y="120" width="4" height="4" fill="black" />
<rect x="64" y="120" width="4" height="4" fill="black" />
<rect x="68" y="120" width="4" height="4" fill="black" />
<rect x="72" y="120" width="4" height="4" fill="black" />
<rect x="76" y="120" width="4" height="4" fill="black" />
<rect x="84" y="120" width="4" height="4" fill="black" />
<rect x="88" y="120" width="4" height="4" fill="black" />
<rect x="92" y="120" width="4" height="4" fill="black" />
<rect x="96" y="120" width="4" height="4" fill="black" />
<rect x="56" y="124" width="4" height="4" fill="black" />
<rect x="60" y="124" width="4" height="4" fill="black" />
<rect x="64" y="124" width="4" height="4" fill="black" />
<rect x="68" y="124" width="4" height="4" fill="black" />
<rect x="72" y="124" width="4" height="4" fill="black" />
<rect x="76" y="124" width="4" height="4" fill="black" />
<rect x="84" y="124" width="4" height="4" fill="black" />
<rect x="88" y="124" width="4" height="4" fill="black" />
<rect x="92" y="124" width="4" height="4" fill="black" />
</svg>
